<svg width="16" height="16" viewBox="0 0 16 16" fill="none" xmlns="http://www.w3.org/2000/svg">
<path d="M8 0C3.5888 0 0 3.5888 0 8C0 12.4112 3.5888 16 8 16C12.4112 16 16 12.4112 16 8C16 3.5888 12.4112 0 8 0ZM8 14.2977C4.52746 14.2977 1.7021 11.4727 1.7021 8C1.7021 4.5273 4.52746 1.70226 8 1.70226C11.4725 1.70226 14.2979 4.5273 14.2979 8C14.2979 11.4727 11.4725 14.2977 8 14.2977Z" fill="black"/>
<path d="M12.1705 7.75299H8.57523V3.43022C8.57523 3.06645 8.28029 2.77151 7.91652 2.77151C7.55275 2.77151 7.25781 3.06645 7.25781 3.43022V8.4117C7.25781 8.77547 7.55275 9.0704 7.91652 9.0704H12.1705C12.5342 9.0704 12.8292 8.77547 12.8292 8.4117C12.8292 8.04792 12.5342 7.75299 12.1705 7.75299Z" fill="black"/>
</svg>
