<svg width="15" height="15" viewBox="0 0 15 15" fill="none" xmlns="http://www.w3.org/2000/svg">
<g clip-path="url(#clip0)">
<path d="M13.0152 1.37888H1.98472C0.890334 1.37888 0 2.26924 0 3.3636V11.6364C0 12.7308 0.890334 13.6212 1.98472 13.6212H13.0152C14.1096 13.6212 14.9999 12.7308 14.9999 11.6364V3.3636C14.9999 2.26921 14.1096 1.37888 13.0152 1.37888ZM13.7881 11.6364C13.7881 12.0626 13.4413 12.4093 13.0152 12.4093H1.98472C1.55857 12.4093 1.21184 12.0626 1.21184 11.6364V3.3636C1.21184 2.93744 1.55857 2.59071 1.98472 2.59071H13.0152C13.4413 2.59071 13.7881 2.93744 13.7881 3.3636V11.6364Z" fill="black"/>
<path d="M14.8904 3.0161C14.6985 2.74197 14.3208 2.67529 14.0465 2.86719L7.49996 7.44972L0.953414 2.86716C0.679283 2.67523 0.30147 2.74194 0.109575 3.01607C-0.0823202 3.2902 -0.0156403 3.66802 0.258491 3.85991L7.15253 8.68576C7.25685 8.7588 7.37841 8.79527 7.49999 8.79527C7.62154 8.79527 7.74312 8.75877 7.84745 8.68576L14.7415 3.85994C15.0156 3.66805 15.0823 3.29023 14.8904 3.0161Z" fill="black"/>
</g>
<defs>
<clipPath id="clip0">
<rect width="15" height="15" fill="white"/>
</clipPath>
</defs>
</svg>
