<?xml version="1.0" encoding="utf-8"?><svg xmlns="http://www.w3.org/2000/svg" xmlns:xlink="http://www.w3.org/1999/xlink"><symbol viewBox="0 0 122 52" id="logo" xmlns="http://www.w3.org/2000/svg"><g clip-path="url(#aclip0)"><path d="M26.93.035C26.682 0 26.398 0 26.15 0 11.73 0 0 11.67 0 26.018S11.729 52 26.15 52C40.573 52 52.3 40.33 52.3 26.018 52.267 11.916 40.963.458 26.93.035zm-.78 50.555c-13.642 0-24.733-11.035-24.733-24.572C1.417 12.445 12.508 1.41 26.15 1.41c13.643 0 24.733 11.035 24.733 24.608 0 13.537-11.126 24.572-24.733 24.572z"/><path d="M26.15 2.327c-13.111 0-23.812 10.611-23.812 23.69 0 13.045 10.666 23.692 23.812 23.692 13.11 0 23.812-10.612 23.812-23.691C49.925 12.938 39.26 2.327 26.15 2.327zm-7.725 9.307c0-4.23 3.473-7.686 7.725-7.686 5.74 0 10.382 4.69 10.382 10.471 0 .458-.035.881-.106 1.34-.78 5.393-8.894 4.724-8.894-.74a1.36 1.36 0 0 0-1.382-1.376c-.78 0-1.382.6-1.382 1.375v9.59h-6.343V11.634zM3.968 26.018c0-1.058.07-2.08.212-3.103 1.914 2.186 4.465 3.667 7.335 4.195l-6.023 6.84a21.22 21.22 0 0 1-1.524-7.932zm9 17.697a23.124 23.124 0 0 1-4.5-4.407 3.762 3.762 0 0 1 .177-4.794l4.323-4.9v14.101zm0-19.143a9.95 9.95 0 0 1-4.146-1.375c-2.693-1.586-3.614-5.076-2.126-7.79a22.18 22.18 0 0 1 6.272-7.158v16.323zm13.182 23.48h-.071c-4.252 0-7.619-3.526-7.619-7.756V27.392h6.414c.709 6.523 6.307 11.705 13.075 11.705h5.989c-4.04 5.43-10.489 8.954-17.788 8.954zm11.764-11.705c-5.28 0-9.638-3.984-10.276-9.06 6.52-.74 11.587-6.205 11.658-12.868a13.1 13.1 0 0 0-2.516-7.756 22.355 22.355 0 0 1 8.114 7.615h-2.799a4.955 4.955 0 0 0 1.984 3.35 10.44 10.44 0 0 1 4.182 6.909c.035.494.035.952.035 1.445v.212c-.07 5.64-4.748 10.153-10.382 10.153zm37.171-7.827c0 .424.142.776.425 1.023.284.247.709.388 1.311.388h.744v.247h-7.689v-.247h.744c1.17 0 1.736-.494 1.736-1.48v-6.593h-2.444c-.71.176-1.17.634-1.453 1.34-.248.74-.425 1.656-.532 2.784-.035.846-.142 1.552-.283 2.08-.142.564-.355.987-.603 1.305-.248.317-.566.564-.92.67-.355.14-.78.211-1.241.211-.496 0-.886-.106-1.205-.317a1.518 1.518 0 0 1-.638-.846c-.141-.353-.177-.74-.141-1.199.035-.458.141-.916.319-1.41a.573.573 0 0 1 .318-.106c.107 0 .213.07.284.141-.284.388-.46.776-.567 1.164a2.445 2.445 0 0 0-.07.987c.035.282.14.529.282.705a.741.741 0 0 0 .567.282c.284 0 .461-.106.567-.282.107-.177.178-.423.213-.776.035-.317.035-.74.035-1.198 0-.459.036-.988.107-1.552a5.02 5.02 0 0 1 .319-1.445 4.05 4.05 0 0 1 .638-1.305c.248-.387.566-.74.956-.987.355-.282.815-.458 1.311-.528v-.07c-.496-.036-.956-.177-1.417-.353a5.636 5.636 0 0 1-1.24-.776 3.78 3.78 0 0 1-.886-1.199c-.213-.493-.319-1.022-.319-1.657 0-1.586.496-2.785 1.524-3.56 1.027-.776 2.657-1.164 4.925-1.164.709 0 1.417.036 2.162.07.744.036 1.381.071 1.877.071h2.764v.247h-.744c-1.17 0-1.736.494-1.736 1.48v13.856zm-2.728-15.23c-.638-.175-1.205-.281-1.63-.281-.993 0-1.737.14-2.197.458-.496.317-.815.67-.993 1.128a3.504 3.504 0 0 0-.212 1.516c.035.564.035 1.058.035 1.551 0 .564.036 1.093.071 1.587.036.493.177.881.39 1.234.213.352.532.599.957.81.425.212 1.027.283 1.771.283.355 0 .71-.036.992-.07.32-.036.568-.142.816-.318V13.29zm9.638 1.34c0-.987-.567-1.48-1.737-1.48h-.744v-.247h2.764c.532 0 1.17-.035 1.878-.07.744-.036 1.453-.071 2.162-.071 1.24 0 2.303.106 3.189.317.85.212 1.559.53 2.055.952.531.423.886.952 1.098 1.551.213.635.32 1.34.32 2.116 0 1.692-.568 3.067-1.702 4.054-1.134.987-2.799 1.516-4.96 1.516-.248 0-.496 0-.815-.035-.32 0-.567-.036-.815-.071v5.218c0 .987.567 1.48 1.736 1.48h.744v.247h-7.69v-.247h.745c.602 0 1.063-.14 1.311-.387.283-.247.425-.6.425-1.023V14.63h.036zm2.728 7.933c.177.176.496.282.886.388.425.105.815.14 1.17.14.779 0 1.381-.14 1.806-.387.426-.247.745-.635.957-1.093.213-.458.319-1.023.355-1.622.035-.634.07-1.304.07-2.045v-1.586c0-.564-.106-1.093-.319-1.587-.212-.493-.566-.88-1.063-1.233-.496-.318-1.24-.494-2.197-.494-.248 0-.496 0-.744.035-.283 0-.567.07-.886.141v9.343h-.035zm17.398 4.689l-6.13-12.128c-.177-.353-.354-.635-.46-.917-.142-.246-.284-.458-.426-.599a1.402 1.402 0 0 0-.531-.352 2.447 2.447 0 0 0-.78-.106h-.283v-.247h7.689v.247h-.744c-.603 0-1.063.176-1.347.529-.283.352-.283.81.036 1.41l4.11 8.39h.106l2.339-7.685c.248-.81.248-1.446.036-1.94-.213-.493-.638-.704-1.241-.704h-.744v-.247h5.067v.247h-.248c-.602 0-1.134.282-1.594.881-.461.6-.851 1.41-1.17 2.433l-3.401 10.788c-.213.67-.425 1.198-.674 1.586-.248.423-.496.74-.779.952a1.814 1.814 0 0 1-.78.458c-.248.07-.46.141-.637.141-.248 0-.496-.035-.78-.14-.248-.107-.496-.212-.709-.424a2.032 2.032 0 0 1-.531-.67c-.142-.247-.213-.564-.213-.916 0-.423.071-.776.248-1.093.142-.282.355-.529.603-.67.248-.141.531-.212.815-.212.283 0 .602.141.85.353l.035.176a2 2 0 0 0-.141.776c0 .247.035.458.106.67.07.211.177.352.319.458a.77.77 0 0 0 .496.176c.177 0 .354-.07.602-.211s.426-.423.532-.811l.354-.6zm14.564-14.596c.708 0 1.311.035 1.842.106.532.07 1.028.106 1.418.106.389 0 .744-.035 1.027-.106.284-.106.496-.282.638-.6l.177.106a8.12 8.12 0 0 0-.248 1.481 25.69 25.69 0 0 0-.142 1.763c-.035.6-.07 1.269-.07 1.904 0 .67-.036 1.304-.036 1.939h-.177c-.142-2.292-.567-3.914-1.311-4.936-.744-.987-1.772-1.516-3.118-1.516-.78 0-1.418.141-1.914.423a3.57 3.57 0 0 0-1.204 1.093 4.292 4.292 0 0 0-.603 1.551c-.142.564-.212 1.164-.248 1.798-.035.6-.035 1.234-.035 1.833.035.6.035 1.129.035 1.622 0 .529 0 1.128-.035 1.763a18.054 18.054 0 0 0 .212 3.913c.142.635.319 1.199.638 1.692.284.494.709.882 1.205 1.164.496.282 1.169.458 1.984.458a2.85 2.85 0 0 0 1.914-.705c.531-.459.956-1.058 1.346-1.798.354-.74.638-1.516.851-2.397.212-.882.354-1.693.425-2.503h.177v2.08c0 .74.035 1.48.106 2.22.036.74.107 1.41.177 2.01.071.635.178 1.128.284 1.516l-.213.141c-.177-.494-.496-.81-.921-.917a3.047 3.047 0 0 0-1.382 0c-.496.106-1.028.212-1.524.388a4 4 0 0 1-1.275.247 6.885 6.885 0 0 1-2.941-.635 6.395 6.395 0 0 1-2.304-1.833 8.464 8.464 0 0 1-1.523-2.855c-.355-1.129-.532-2.363-.532-3.737 0-1.27.177-2.468.532-3.526a8.639 8.639 0 0 1 1.523-2.75 6.693 6.693 0 0 1 2.304-1.798c.921-.493 1.878-.705 2.941-.705zM66.049 35.642a.96.96 0 0 0-.532-.141c-.354 0-.815.141-.815 1.48 0 1.094.284 1.305.744 1.305.284 0 .496-.106.603-.211.035.07.035.14.035.211 0 .141-.319.317-.78.317-.602 0-.992-.211-.992-1.657 0-1.586.674-1.797 1.205-1.797.284 0 .567.105.567.282 0 .035 0 .14-.035.211zm3.472-.106v2.926c0 .07 0 .07-.354.07v-2.996h-.815c0-.317 0-.317.106-.317h1.914c0 .282 0 .317-.106.317h-.745zm3.083-.211c-.035-.106-.035-.106.354-.106l.496 1.974c.107.494.178 1.023.178 1.023s.07-.53.177-1.058l.46-1.833c.036-.106.036-.106.39-.106l-.886 3.525c-.212.811-.46 1.093-.92 1.093-.32 0-.497-.07-.497-.211 0-.07.035-.176.07-.212.107.07.284.07.426.07.248 0 .46-.21.602-.845l-.85-3.314zm3.898 2.961c0-.106.106-.07.319-.106.39-.74.425-1.903.46-2.89 0-.106.036-.106.638-.106h1.028v2.996h.319v1.199c0 .07-.107.07-.248.07a5.894 5.894 0 0 1-.107-.951h-2.02c0 .352-.07.775-.07.881-.036.07-.142.07-.248.07v-1.163h-.071zm2.055-2.75h-.921c-.071 1.023-.071 1.869-.425 2.644h1.382v-2.644h-.036zm4.713-.211c.035-.07.07-.106.354-.106v3.243c0 .07-.035.07-.354.07V37.3c0-.07.07-1.199.07-1.551-.177.352-.708 1.375-.743 1.445l-.674 1.234c-.035.106-.07.106-.319.106V35.29c0-.07.036-.07.355-.07v1.763c0 .352-.036.775-.071 1.022.177-.317.709-1.375.744-1.445l.638-1.234zm3.65 1.833c-.249.282-.39.67-.461 1.304-.035.07-.071.106-.142.106h-.248c.035-.81.319-1.304.532-1.516-.284-.106-.567-.352-.567-.846 0-.67.354-.987 1.098-.987h.78v3.208c0 .106 0 .106-.355.106v-1.41h-.638v.035zm.637-1.622h-.496c-.425 0-.638.212-.638.67 0 .494.284.67.567.67h.567v-1.34zm5.599-.105a1.78 1.78 0 0 1 .957-.282c.673 0 1.098.317 1.098 1.41 0 1.798-.673 2.044-1.098 2.044-.284 0-.496-.105-.603-.246v1.445c-.07 0-.141.035-.177.035-.106 0-.177-.035-.177-.14V35.43zm.354 2.538a.573.573 0 0 0 .496.317c.284 0 .78-.176.78-1.657 0-.916-.248-1.163-.709-1.163a.984.984 0 0 0-.567.176v2.327zm5.989.07c.035.07.035.177.035.247 0 .176-.425.317-.886.317-.638 0-1.098-.211-1.098-1.55 0-1.728.638-1.904 1.205-1.904.567 0 .85.387.85 1.057 0 .282-.035.564-.07.811-.532.106-1.276.106-1.595.106 0 .987.283 1.128.78 1.128.247 0 .566-.07.779-.212zm-1.595-1.234c.284 0 .886 0 1.276-.07.035-.176.035-.317.035-.458 0-.53-.106-.776-.496-.776-.354 0-.78.141-.815 1.304zm4.04-1.516s0-.07.106-.07h.248l.744 1.657c.071.106.213.529.213.529.071-.212.212-.564.283-.74l.603-1.41c0-.036.035-.071.106-.071h.283v3.278c0 .07.036.07-.354.07V37.3c0-.247.071-.776.071-1.551l-.532 1.234-.354.775c0 .035-.035.035-.071.035h-.177l-.354-.81c-.036-.07-.355-.846-.532-1.199 0 .67.071 1.234.071 1.445v1.2c0 .07 0 .07-.354.07V35.29zm6.094-.14c.674 0 1.028.352 1.028 1.727 0 1.199-.39 1.727-1.099 1.727-.673 0-1.027-.211-1.027-1.727 0-1.234.39-1.727 1.098-1.727zm-.071 3.137c.426 0 .709-.388.709-1.41 0-1.163-.248-1.375-.673-1.375-.425 0-.709.317-.709 1.445.036 1.129.248 1.34.673 1.34zm5.493.176c0 .07 0 .07-.39.07v-1.48h-1.24v1.41c0 .07 0 .07-.355.07V35.29c0-.106 0-.106.355-.106V36.7h1.24v-1.41c0-.106 0-.106.39-.106v3.278zm3.543-2.926v2.926c0 .07 0 .07-.354.07v-2.996h-.815c0-.317 0-.317.106-.317h1.914c0 .282 0 .317-.107.317h-.744zm4.996.811c0 .776 0 1.48-.035 2.01-.142.105-.425.246-.921.246-.496 0-.957-.07-.957-.987 0-.952.496-1.093.992-1.093.177 0 .39.036.532.07v-.598c0-.423-.213-.53-.532-.53-.425 0-.779.071-.957.177a.503.503 0 0 1-.07-.212c0-.07.035-.105.07-.14.142-.071.567-.177 1.063-.177.532 0 .815.212.815.811v.423zm-.815.458c-.389 0-.744.07-.744.776 0 .635.284.67.638.67.213 0 .425-.07.496-.141.036-.282.036-.811.036-1.27-.107 0-.284-.035-.426-.035z"/></g><defs><clipPath id="aclip0"><path d="M0 0h122v52H0z"/></clipPath></defs></symbol></svg>