<?xml version="1.0" encoding="utf-8"?><svg xmlns="http://www.w3.org/2000/svg" xmlns:xlink="http://www.w3.org/1999/xlink"><symbol viewBox="0 0 59 17" id="banner_arrow" xmlns="http://www.w3.org/2000/svg"><path d="M58 8.5L50 16m8-7.5L50 1m8 7.5H.5"/></symbol><symbol viewBox="0 0 29 29" id="calc11" xmlns="http://www.w3.org/2000/svg"><path d="M23.127 10.896h-.908v.852h.908v-.852zm1.814 0h-.908v.852h.908v-.852z"/><path d="M27.638 10.896V9.08h-4.54V4.512h-.851V9.08h-3.633v1.816h-1.418V3.604h-.852v24.544h-4.596v-3.632h-6.3v3.633H.851V.85h15.493v1.39h.852V0H0v29h21.31v-.852h-4.114v-16.4h4.114v-.852h-1.844v-.964h7.32v1.816h1.362v16.4h-5.476V29H29V10.896h-1.362zM10.896 28.148H6.3v-2.78h1.872v1.844h.852v-1.844h1.872v2.78z"/><path d="M5.392 1.816H1.816v3.576h3.576V1.816zM4.54 4.54H2.668V2.667H4.54V4.54zm10.84-2.724h-3.575v3.576h3.575V1.816zm-.85 2.724h-1.873V2.667h1.873V4.54zm-4.144-2.724H6.811v3.576h3.575V1.816zM9.535 4.54H7.662V2.667h1.873V4.54zM5.392 6.356H1.816v3.576h3.576V6.356zM4.54 9.08H2.668V7.208H4.54V9.08zm7.265.852h3.575V6.356h-3.575v3.576zm.851-2.724h1.873V9.08h-1.873V7.208zm-2.27-.852H6.811v3.576h3.575V6.356zM9.535 9.08H7.662V7.208h1.873V9.08zm-4.143 1.816H1.816v3.576h3.576v-3.576zM4.54 13.62H2.668v-1.872H4.54v1.872zm7.265.852h3.575v-3.576h-3.575v3.576zm.851-2.724h1.873v1.872h-1.873v-1.872zm-2.27-.852H6.811v3.576h3.575v-3.576zm-.851 2.724H7.662v-1.872h1.873v1.872zm-4.143 1.816H1.816v3.576h3.576v-3.576zM4.54 18.16H2.668v-1.872H4.54v1.872zm7.265.852h3.575v-3.576h-3.575v3.576zm.851-2.724h1.873v1.872h-1.873v-1.872zm-2.27-.852H6.811v3.576h3.575v-3.576zm-.851 2.724H7.662v-1.872h1.873v1.872zm9.08-1.418h3.576v-3.576h-3.576v3.576zm.852-2.724h1.872v1.872h-1.872v-1.872zm3.687 2.724h3.576v-3.576h-3.576v3.576zm.852-2.724h1.872v1.872h-1.872v-1.872zm-5.391 7.718h3.576V18.16h-3.576v3.576zm.852-2.724h1.872v1.872h-1.872v-1.872zm3.687 2.724h3.576V18.16h-3.576v3.576zm.852-2.724h1.872v1.872h-1.872v-1.872zm-5.391 7.718h3.576v-3.576h-3.576v3.576zm.852-2.724h1.872v1.872h-1.872v-1.872zm3.687 2.724h3.576v-3.576h-3.576v3.576zm.852-2.724h1.872v1.872h-1.872v-1.872zm-22.19-.454h3.576v-3.576H1.816v3.576zm.852-2.724H4.54V22.7H2.668v-1.872zm9.137 2.724h3.575v-3.576h-3.575v3.576zm.851-2.724h1.873V22.7h-1.873v-1.872zM6.81 23.552h3.576v-3.576H6.811v3.576zm.852-2.724h1.873V22.7H7.662v-1.872zm8.202 3.688h-3.18v.852h3.18v-.852zm-.456 2.668h.456v-.852h-3.18v.852h2.724z"/></symbol><symbol viewBox="0 0 29 29" id="calc12" xmlns="http://www.w3.org/2000/svg"><path d="M28.517 4.592H23.2V.725a.483.483 0 0 0-.483-.483H6.283A.483.483 0 0 0 5.8.725v6.767H.483A.483.483 0 0 0 0 7.975v19.817a.483.483 0 0 0 .967 0V8.458H5.8v19.817c0 .267.216.483.483.483h16.434a.483.483 0 0 0 .483-.483V5.558h4.833v22.234a.483.483 0 0 0 .967 0V5.075a.483.483 0 0 0-.483-.483zm-14.5 23.2h-1.934v-4.35h1.934v4.35zm2.9 0h-1.934v-4.35h1.934v4.35zm5.316 0h-4.35v-4.834a.483.483 0 0 0-.483-.483h-5.8a.483.483 0 0 0-.483.483v4.834h-4.35V1.208h15.466v26.584z"/><path d="M11.116 2.175h-2.9a.483.483 0 0 0-.484.483v2.9c0 .267.217.484.484.484h2.9a.483.483 0 0 0 .483-.484v-2.9a.483.483 0 0 0-.483-.483zm-.484 2.9H8.7V3.142h1.933v1.933zm5.318-2.9h-2.9a.483.483 0 0 0-.484.483v2.9c0 .267.217.484.484.484h2.9a.483.483 0 0 0 .483-.484v-2.9a.483.483 0 0 0-.483-.483zm-.484 2.9h-1.933V3.142h1.933v1.933zm5.318-2.9h-2.9a.483.483 0 0 0-.484.483v2.9c0 .267.217.484.484.484h2.9a.483.483 0 0 0 .483-.484v-2.9a.483.483 0 0 0-.483-.483zm-.484 2.9h-1.933V3.142H20.3v1.933zm-9.184 1.933h-2.9a.483.483 0 0 0-.484.484v2.9c0 .267.217.483.484.483h2.9a.483.483 0 0 0 .483-.483v-2.9a.483.483 0 0 0-.483-.484zm-.484 2.9H8.7V7.975h1.933v1.933zm5.318-2.9h-2.9a.483.483 0 0 0-.484.484v2.9c0 .267.217.483.484.483h2.9a.483.483 0 0 0 .483-.483v-2.9a.483.483 0 0 0-.483-.484zm-.484 2.9h-1.933V7.975h1.933v1.933zm5.318-2.9h-2.9a.483.483 0 0 0-.484.484v2.9c0 .267.217.483.484.483h2.9a.483.483 0 0 0 .483-.483v-2.9a.483.483 0 0 0-.483-.484zm-.484 2.9h-1.933V7.975H20.3v1.933zm-9.184 1.934h-2.9a.483.483 0 0 0-.484.483v2.9c0 .267.217.483.484.483h2.9a.483.483 0 0 0 .483-.483v-2.9a.483.483 0 0 0-.483-.483zm-.484 2.9H8.7v-1.934h1.933v1.934zm5.318-2.9h-2.9a.483.483 0 0 0-.484.483v2.9c0 .267.217.483.484.483h2.9a.483.483 0 0 0 .483-.483v-2.9a.483.483 0 0 0-.483-.483zm-.484 2.9h-1.933v-1.934h1.933v1.934zm5.318-2.9h-2.9a.483.483 0 0 0-.484.483v2.9c0 .267.217.483.484.483h2.9a.483.483 0 0 0 .483-.483v-2.9a.483.483 0 0 0-.483-.483zm-.484 2.9h-1.933v-1.934H20.3v1.934zm-9.184 1.933h-2.9a.483.483 0 0 0-.484.483v2.9c0 .267.217.484.484.484h2.9a.483.483 0 0 0 .483-.484v-2.9a.483.483 0 0 0-.483-.483zm-.484 2.9H8.7v-1.933h1.933v1.933zm5.318-2.9h-2.9a.483.483 0 0 0-.484.483v2.9c0 .267.217.484.484.484h2.9a.483.483 0 0 0 .483-.484v-2.9a.483.483 0 0 0-.483-.483zm-.484 2.9h-1.933v-1.933h1.933v1.933zm5.318-2.9h-2.9a.483.483 0 0 0-.484.483v2.9c0 .267.217.484.484.484h2.9a.483.483 0 0 0 .483-.484v-2.9a.483.483 0 0 0-.483-.483zm-.484 2.9h-1.933v-1.933H20.3v1.933zM2.9 9.425h-.483a.483.483 0 0 0-.483.483v.484c0 .267.216.483.483.483H2.9a.483.483 0 0 0 .484-.483v-.484a.483.483 0 0 0-.484-.483zm1.934 0H4.35a.483.483 0 0 0-.484.483v.484c0 .267.217.483.484.483h.483a.483.483 0 0 0 .483-.483v-.484a.483.483 0 0 0-.483-.483zM2.9 11.358h-.483a.483.483 0 0 0-.483.484v.483c0 .267.216.483.483.483H2.9a.483.483 0 0 0 .484-.483v-.483a.483.483 0 0 0-.484-.484zm1.934 0H4.35a.483.483 0 0 0-.484.484v.483c0 .267.217.483.484.483h.483a.483.483 0 0 0 .483-.483v-.483a.483.483 0 0 0-.483-.484zM2.9 13.292h-.483a.483.483 0 0 0-.483.483v.483c0 .267.216.484.483.484H2.9a.483.483 0 0 0 .484-.484v-.483a.483.483 0 0 0-.484-.483zm1.934 0H4.35a.483.483 0 0 0-.484.483v.483c0 .267.217.484.484.484h.483a.483.483 0 0 0 .483-.484v-.483a.483.483 0 0 0-.483-.483zM2.9 15.225h-.483a.483.483 0 0 0-.483.483v.484c0 .267.216.483.483.483H2.9a.483.483 0 0 0 .484-.483v-.484a.483.483 0 0 0-.484-.483zm1.934 0H4.35a.483.483 0 0 0-.484.483v.484c0 .267.217.483.484.483h.483a.483.483 0 0 0 .483-.483v-.484a.483.483 0 0 0-.483-.483zM2.9 17.158h-.483a.483.483 0 0 0-.483.484v.483c0 .267.216.483.483.483H2.9a.483.483 0 0 0 .484-.483v-.483a.483.483 0 0 0-.484-.484zm1.934 0H4.35a.483.483 0 0 0-.484.484v.483c0 .267.217.483.484.483h.483a.483.483 0 0 0 .483-.483v-.483a.483.483 0 0 0-.483-.484zM2.9 19.092h-.483a.483.483 0 0 0-.483.483v.483c0 .267.216.484.483.484H2.9a.483.483 0 0 0 .484-.484v-.483a.483.483 0 0 0-.484-.483zm1.934 0H4.35a.483.483 0 0 0-.484.483v.483c0 .267.217.484.484.484h.483a.483.483 0 0 0 .483-.484v-.483a.483.483 0 0 0-.483-.483zM2.9 21.025h-.483a.483.483 0 0 0-.483.483v.484c0 .267.216.483.483.483H2.9a.483.483 0 0 0 .484-.483v-.484a.483.483 0 0 0-.484-.483zm1.934 0H4.35a.483.483 0 0 0-.484.483v.484c0 .267.217.483.484.483h.483a.483.483 0 0 0 .483-.483v-.484a.483.483 0 0 0-.483-.483zM2.9 22.958h-.483a.483.483 0 0 0-.483.484v.483c0 .267.216.483.483.483H2.9a.483.483 0 0 0 .484-.483v-.483a.483.483 0 0 0-.484-.484zm1.934 0H4.35a.483.483 0 0 0-.484.484v.483c0 .267.217.483.484.483h.483a.483.483 0 0 0 .483-.483v-.483a.483.483 0 0 0-.483-.484zM2.9 24.892h-.483a.483.483 0 0 0-.483.483v.483c0 .267.216.484.483.484H2.9a.483.483 0 0 0 .484-.484v-.483a.483.483 0 0 0-.484-.483zm1.934 0H4.35a.483.483 0 0 0-.484.483v.483c0 .267.217.484.484.484h.483a.483.483 0 0 0 .483-.484v-.483a.483.483 0 0 0-.483-.483zM26.583 6.525h-1.934a.483.483 0 0 0-.483.483v1.934c0 .267.216.483.483.483h1.934a.483.483 0 0 0 .483-.483V7.008a.483.483 0 0 0-.483-.483zm-.484 1.933h-.966v-.966h.966v.966zm.484 1.934h-1.934a.483.483 0 0 0-.483.483v1.933c0 .267.216.484.483.484h1.934a.483.483 0 0 0 .483-.484v-1.933a.483.483 0 0 0-.483-.483zm-.484 1.933h-.966v-.967h.966v.967zm.484 1.933h-1.934a.483.483 0 0 0-.483.484v1.933c0 .267.216.483.483.483h1.934a.483.483 0 0 0 .483-.483v-1.933a.483.483 0 0 0-.483-.484zm-.484 1.934h-.966v-.967h.966v.967zm.484 1.933h-1.934a.483.483 0 0 0-.483.483v1.934c0 .267.216.483.483.483h1.934a.483.483 0 0 0 .483-.483v-1.934a.483.483 0 0 0-.483-.483zm-.484 1.933h-.966v-.966h.966v.966zm.484 1.934h-1.934a.483.483 0 0 0-.483.483v1.933c0 .267.216.484.483.484h1.934a.483.483 0 0 0 .483-.484v-1.933a.483.483 0 0 0-.483-.483zm-.484 1.933h-.966v-.967h.966v.967z"/></symbol><symbol viewBox="0 0 29 29" id="calc13" xmlns="http://www.w3.org/2000/svg"><g clip-path="url(#dclip0)"><path d="M7.698 26.17a2.42 2.42 0 0 0-2.381-2.003 2.42 2.42 0 0 0-2.17 1.354 2.055 2.055 0 0 0-.247-.15v-7.97a.484.484 0 0 0-.967 0v7.732A1.935 1.935 0 0 0 0 27.067C0 28.133.867 29 1.933 29H7.25a1.451 1.451 0 0 0 .448-2.83zm-.448 1.863H1.933a.968.968 0 0 1 0-1.933c.451 0 .852.262.997.653a.483.483 0 0 0 .937-.17c0-.799.65-1.45 1.45-1.45.8 0 1.45.651 1.45 1.45 0 .267.216.484.483.484a.484.484 0 0 1 0 .966z"/><path d="M28.517 3.867h-9.184a.483.483 0 0 0 0 .966h8.7v10.434L14.842 2.075a.483.483 0 0 0-.687 0L.967 15.266V4.833h5.316a.484.484 0 0 0 .484-.483V2.417a.484.484 0 0 0-.484-.484H5.8V.967h2.9v.966h-.483a.484.484 0 0 0-.484.484V4.35c0 .267.217.483.484.483h1.45a.484.484 0 0 0 0-.966H8.7V2.9h.483a.484.484 0 0 0 .484-.483V.483A.484.484 0 0 0 9.183 0H5.317a.484.484 0 0 0-.484.483v1.934c0 .266.217.483.484.483H5.8v.967H.483A.482.482 0 0 0 0 4.35l.002 12.083a.483.483 0 0 0 .825.342L14.498 3.1l13.677 13.676a.483.483 0 0 0 .825-.342V4.35a.483.483 0 0 0-.483-.483z"/><path d="M27.066 25.133V17.4a.484.484 0 0 0-.966 0v7.972a2.035 2.035 0 0 0-.247.149 2.42 2.42 0 0 0-2.17-1.354 2.42 2.42 0 0 0-2.381 2.004 1.453 1.453 0 0 0-1.002 1.38c0 .17.034.33.089.482h-8.306a.483.483 0 0 0 0 .967h14.983A1.935 1.935 0 0 0 29 27.067a1.935 1.935 0 0 0-1.934-1.934zm0 2.9H21.75a.484.484 0 0 1 0-.966.483.483 0 0 0 .483-.484c0-.799.65-1.45 1.45-1.45.8 0 1.45.651 1.45 1.45a.483.483 0 0 0 .936.17c.146-.39.546-.653.997-.653a.968.968 0 0 1 0 1.933zM16.433 9.667A1.935 1.935 0 0 0 14.5 7.733a1.935 1.935 0 0 0-1.934 1.934c0 1.066.867 1.933 1.934 1.933a1.935 1.935 0 0 0 1.933-1.933zm-2.9 0a.968.968 0 0 1 1.933 0 .968.968 0 0 1-1.933 0z"/><path d="M23.684 16.433h-3.867a.484.484 0 0 0-.483.483v5.317h-.483a.484.484 0 0 0 0 .967h5.8a.484.484 0 0 0 0-.967h-.484v-5.317a.484.484 0 0 0-.483-.483zm-.483 5.8h-2.9V20.3h2.9v1.933zm0-2.9h-2.9V17.4h2.9v1.933z"/><path d="M19.333 26.583a.484.484 0 0 0-.484-.483H17.4v-9.183a.484.484 0 0 0-.483-.484h-4.833a.484.484 0 0 0-.484.484V26.1h-1.45a.483.483 0 0 0-.483.483v1.934a.483.483 0 0 0 .967 0v-1.45h8.216a.483.483 0 0 0 .484-.484zm-2.9-5.316h-.484a.483.483 0 0 0 0 .966h.484V26.1h-3.867v-8.7h3.867v3.867z"/><path d="M9.184 16.433H5.317a.484.484 0 0 0-.483.483v5.317H4.35a.484.484 0 0 0 0 .967h5.8a.483.483 0 0 0 0-.967h-.484v-5.316a.484.484 0 0 0-.483-.484zm-.483 5.8H5.8V20.3h2.9v1.933zm0-2.9H5.8V17.4h2.9v1.933z"/></g><defs><clipPath id="dclip0"><path d="M0 0h29v29H0z"/></clipPath></defs></symbol><symbol viewBox="0 0 29 29" id="calc21" xmlns="http://www.w3.org/2000/svg"><g clip-path="url(#eclip0)"><path d="M25.66 20.466a.425.425 0 0 0-.464.092l-4.651 4.651a.426.426 0 0 0 .3.727h4.652c.235 0 .426-.19.426-.426v-4.65a.426.426 0 0 0-.263-.393zm-3.787 4.619l3.198-3.199v3.199h-3.198z"/><path d="M28.737 13.643a.426.426 0 0 0-.464.092L27 15.01V6.342a.426.426 0 0 0-.426-.426h-3.27L24.49 4.73l1.144-1.144a1.29 1.29 0 0 0 .38-.918 1.29 1.29 0 0 0-.38-.918L24.311.427a1.29 1.29 0 0 0-.918-.38 1.29 1.29 0 0 0-.917.38L21.33 1.57l-1.383 1.383-2.962 2.962H3.773v-4.21a.426.426 0 0 0-.425-.426A3.352 3.352 0 0 0 0 4.628v18.079c0 .031.004.062.01.091.059.783.398 1.511.964 2.064.605.59 1.405.915 2.25.915h13.007l-2.45 2.45a.426.426 0 0 0 .302.726h14.491c.235 0 .426-.19.426-.425V14.036a.426.426 0 0 0-.263-.393zm-5.66-12.614a.447.447 0 0 1 .632 0l1.323 1.322a.447.447 0 0 1 0 .632l-.843.843-1.955-1.954.844-.843zm-1.445 1.445l1.955 1.954-.781.781-1.955-1.954.781-.781zm6.517 16.345h-.786a.426.426 0 1 0 0 .851h.786v1.283h-.786a.426.426 0 1 0 0 .851h.786v1.283h-.786a.426.426 0 0 0 0 .851h.786v1.283h-.786a.426.426 0 0 0 0 .851h.786v2.03H15.11l4.3-4.3a.425.425 0 1 0-.602-.601l-1.725 1.725H3.224a2.36 2.36 0 0 1-2.37-2.296c.002-.081.008-.162.018-.24v-.002c.005-.038.01-.075.017-.113l.003-.012a2.458 2.458 0 0 1 .1-.383l.016-.044c.01-.028.022-.056.033-.083l.01-.024c.014-.034.03-.067.045-.1l.002-.005a2.506 2.506 0 0 1 1.742-1.362l.007-.001c.035-.008.07-.014.106-.02l.018-.003c.032-.005.065-.008.098-.012l.027-.003.096-.008.03-.002.126-.003c.235 0 .425-.19.425-.426v-3.086a.426.426 0 0 0-.85 0v2.688A3.325 3.325 0 0 0 .85 20.477V4.628a2.5 2.5 0 0 1 2.071-2.46v12.826a.426.426 0 0 0 .851 0V6.768h12.362L13.78 9.12a.426.426 0 0 0 .602.602l3.08-3.08 2.786-2.786 1.955 1.954-.23.23-8.583 8.583-1.954-1.954 1.692-1.692a.426.426 0 1 0-.602-.602l-1.993 1.993a.411.411 0 0 0-.03.033l-.009.012a.468.468 0 0 0-.017.024l-.01.015a.354.354 0 0 0-.03.066l-.005.009-.829 2.35-.565 1.6a.43.43 0 0 0-.017.066H7.606a.426.426 0 0 0 0 .85h11.788a.426.426 0 1 0 0-.85h-8.457l2.596-.917.006-.002a.407.407 0 0 0 .03-.013l.011-.005c.01-.005.02-.01.03-.017l.01-.005a.433.433 0 0 0 .03-.022l.008-.005a.43.43 0 0 0 .034-.031l8.76-8.76h3.695v9.094l-6.087 6.09a.426.426 0 1 0 .602.602l7.488-7.488v3.755zm-15.536-3.77l-1.22.43-.812-.812.43-1.219 1.602 1.601z"/></g><defs><clipPath id="eclip0"><path d="M0 0h29v29H0z"/></clipPath></defs></symbol><symbol viewBox="0 0 29 29" id="calc22" xmlns="http://www.w3.org/2000/svg"><g clip-path="url(#fclip0)"><path d="M21.244 8.04a.57.57 0 0 0-.4-.167.57.57 0 0 0-.567.567.57.57 0 0 0 .567.566.57.57 0 0 0 .566-.566.57.57 0 0 0-.166-.4zM8.496 15.973H3.965a.566.566 0 0 0-.567.566v4.531c0 .313.254.567.567.567h4.531a.566.566 0 0 0 .566-.567v-4.53a.566.566 0 0 0-.566-.567zm-.566 4.53h-3.4v-3.398h3.4v3.399zm20.72-8.622a.567.567 0 0 0-.617.123l-5.771 5.771h-.001l-6.728 6.729-3.53 3.53a.567.567 0 0 0 .401.966h16.03a.566.566 0 0 0 .566-.566v-16.03a.567.567 0 0 0-.35-.523zm-.783 15.986H13.772l2.161-2.161.54.54a.564.564 0 0 0 .802 0 .566.566 0 0 0 0-.8l-.54-.541 1.441-1.442.54.54a.565.565 0 0 0 .802 0 .566.566 0 0 0 0-.8l-.541-.541 1.442-1.442.54.54a.565.565 0 0 0 .802 0 .567.567 0 0 0 0-.8l-.541-.541 1.442-1.442.54.54a.565.565 0 0 0 .801 0 .567.567 0 0 0 0-.8l-.54-.541 1.441-1.442.541.54a.565.565 0 0 0 .801 0 .567.567 0 0 0 0-.8l-.54-.54 2.161-2.162v14.095z"/><path d="M25.82 18.718a.566.566 0 0 0-.618.123l-6.36 6.36a.567.567 0 0 0 .4.967h6.36a.566.566 0 0 0 .567-.566v-6.36a.567.567 0 0 0-.35-.524zm-.784 6.317H20.61l4.426-4.426v4.426zm1.192-16.581a.566.566 0 0 0-.595-.13l-3.868 1.415a.567.567 0 0 0-.206.132l-1.087 1.087-7.1-7.1a.567.567 0 0 0-.802 0l-8.547 8.547h-2.09L12.972 1.368l6.056 6.056a.566.566 0 1 0 .801-.8L13.371.165a.566.566 0 0 0-.8 0L.165 12.57a.567.567 0 0 0 .4.967h.567v14.897c0 .313.253.566.566.566h9.005a.566.566 0 0 0 0-1.133H2.266v-14.33h1.992c.15 0 .294-.06.4-.166l8.313-8.312 6.7 6.7-8.4 8.4v-5.092h3.965a.566.566 0 0 0 0-1.133h-4.531a.566.566 0 0 0-.566.566v6.57c0 .067.011.13.032.189l-.507.507a2.302 2.302 0 0 0 0 3.252 2.292 2.292 0 0 0 1.626.673 2.29 2.29 0 0 0 1.626-.673l4.777-4.776a.566.566 0 1 0-.801-.801l-3.62 3.619-1.65-1.65 10.35-10.35 1.65 1.651-3.955 3.955a.566.566 0 1 0 .801.8l4.344-4.343a.566.566 0 0 0 .13-.206L26.36 9.05a.566.566 0 0 0-.131-.596zM12.472 23.861l-.357.356a1.16 1.16 0 0 1-.825.342c-.312 0-.605-.121-.825-.342a1.16 1.16 0 0 1-.342-.825c0-.311.122-.604.342-.825l.357-.357 1.65 1.65zM24.19 11.678l-1.186-1.186 1.872-.685-.686 1.87z"/><path d="M19.07 18.063a.57.57 0 0 0-.4-.166.57.57 0 0 0-.567.566.569.569 0 0 0 .967.401.573.573 0 0 0 .166-.4.571.571 0 0 0-.166-.401zm-6.1-9.51a2.155 2.155 0 0 0-2.152 2.152c0 1.187.966 2.152 2.153 2.152a2.155 2.155 0 0 0 2.152-2.152 2.155 2.155 0 0 0-2.152-2.152zm0 3.172a1.02 1.02 0 0 1 0-2.04 1.02 1.02 0 0 1 0 2.04z"/></g><defs><clipPath id="fclip0"><path d="M0 0h29v29H0z"/></clipPath></defs></symbol><symbol viewBox="0 0 10 10" id="calc_check" xmlns="http://www.w3.org/2000/svg"><g clip-path="url(#gclip0)"><path d="M9.854 1.475a.5.5 0 0 0-.708 0l-5.99 5.99L.854 5.162a.5.5 0 0 0-.708.707l2.657 2.657a.5.5 0 0 0 .707 0l6.344-6.344a.5.5 0 0 0 0-.707z"/></g><defs><clipPath id="gclip0"><path transform="matrix(1 0 0 -1 0 10)" d="M0 0h10v10H0z"/></clipPath></defs></symbol><symbol viewBox="0 0 30 24" id="carousel_arrow" xmlns="http://www.w3.org/2000/svg"><path d="M29.56 13.06a1.5 1.5 0 0 0 0-2.12l-9.545-9.547a1.5 1.5 0 1 0-2.122 2.122L26.38 12l-8.486 8.485a1.5 1.5 0 1 0 2.122 2.122l9.546-9.546zM0 13.5h28.5v-3H0v3z"/></symbol><symbol viewBox="0 0 14 24" id="carousel_arrow_sm" xmlns="http://www.w3.org/2000/svg"><path d="M.94 10.94a1.5 1.5 0 0 0 0 2.12l9.545 9.547a1.5 1.5 0 0 0 2.121-2.122L4.121 12l8.486-8.485a1.5 1.5 0 1 0-2.121-2.121L.939 10.939zm2.56-.44H2v3h1.5v-3z"/></symbol><symbol viewBox="0 0 25 25" id="clip" xmlns="http://www.w3.org/2000/svg"><path d="M11.708 11.279a.795.795 0 0 0-1.124-1.124L6.378 14.36a3.708 3.708 0 0 0-1.104 2.655c0 1.008.387 1.938 1.104 2.655 1.473 1.473 3.857 1.473 5.31 0l9.497-9.496a5.205 5.205 0 0 0 1.53-3.701 5.205 5.205 0 0 0-1.53-3.702 5.24 5.24 0 0 0-7.423 0l-9.477 9.477a6.684 6.684 0 0 0-1.976 4.767 6.65 6.65 0 0 0 1.976 4.768 6.684 6.684 0 0 0 4.768 1.976 6.65 6.65 0 0 0 4.767-1.976l4.206-4.206a.795.795 0 0 0-1.124-1.124l-4.206 4.206a5.132 5.132 0 0 1-3.643 1.511 5.132 5.132 0 0 1-3.644-1.511 5.132 5.132 0 0 1-1.511-3.644 5.13 5.13 0 0 1 1.511-3.643l9.477-9.477a3.605 3.605 0 0 1 2.578-1.066c.969 0 1.899.388 2.577 1.066a3.605 3.605 0 0 1 1.066 2.578c0 .969-.388 1.899-1.066 2.577l-9.496 9.496c-.833.834-2.21.834-3.062 0a2.156 2.156 0 0 1 0-3.062l4.225-4.205z"/></symbol><symbol viewBox="0 0 81 26" id="dorohov" xmlns="http://www.w3.org/2000/svg"><path d="M33.477 11.501v-6.03h2.569c1.901 0 3.302 1.12 3.302 2.999 0 1.878-1.367 2.998-3.27 2.998h-2.601v.033zm4.27-2.998c0-.923-.567-1.648-1.668-1.648h-1.001v3.295h1c1.035 0 1.669-.758 1.669-1.647zm2.203 0c0-1.845 1.4-3.097 3.269-3.097 1.868 0 3.236 1.285 3.236 3.097S45.054 11.6 43.219 11.6c-1.902 0-3.27-1.285-3.27-3.097zm4.904 0c0-.989-.634-1.746-1.635-1.746s-1.668.757-1.668 1.746c0 .988.633 1.746 1.668 1.746.967 0 1.635-.79 1.635-1.746zm5.938 2.998l-1.035-2.01h-.8v2.01h-1.568v-6.03h3.036c1.334 0 2.102.89 2.102 2.01 0 1.055-.634 1.615-1.202 1.812l1.235 2.208h-1.768zm.166-4.02c0-.395-.333-.626-.767-.626h-1.234V8.14h1.234c.4 0 .767-.23.767-.659zm2.202 1.022c0-1.845 1.402-3.097 3.27-3.097s3.236 1.285 3.236 3.097S58.265 11.6 56.43 11.6c-1.868 0-3.27-1.285-3.27-3.097zm4.938 0c0-.989-.634-1.746-1.635-1.746-1 0-1.668.757-1.668 1.746 0 .988.634 1.746 1.668 1.746.968 0 1.635-.79 1.635-1.746zm6.607 2.998V9.096H62.17V11.5h-1.568V5.47h1.568v2.274h2.535v-2.24h1.568V11.5h-1.568zm2.502-2.998c0-1.845 1.401-3.097 3.27-3.097 1.868 0 3.236 1.285 3.236 3.097S72.312 11.6 70.477 11.6c-1.869 0-3.27-1.285-3.27-3.097zm4.904 0c0-.989-.633-1.746-1.668-1.746-1 0-1.668.757-1.668 1.746 0 .988.634 1.746 1.668 1.746 1.035 0 1.668-.79 1.668-1.746zm3.937 2.998l-2.302-6.03h1.768l1.502 4.35 1.501-4.35h1.768l-2.302 5.997h-1.935v.033zm-42.571 8.995V14.5h2.569c1.901 0 3.302 1.12 3.302 2.998 0 1.878-1.367 2.998-3.27 2.998h-2.601zm4.27-2.998c0-.923-.567-1.648-1.668-1.648h-1.001v3.295h1c1.035 0 1.669-.758 1.669-1.647zm2.536 2.998V14.5h4.438v1.35h-2.903v.923h2.836v1.35h-2.836v1.022h2.903v1.35h-4.438zm5.139-.824l.834-1.154c.434.429 1.1.791 1.935.791.534 0 .867-.197.867-.494 0-.824-3.436-.165-3.436-2.471 0-1.021.867-1.91 2.436-1.91.967 0 1.834.296 2.468.823l-.867 1.12c-.5-.428-1.168-.626-1.768-.626-.467 0-.667.165-.667.428 0 .758 3.436.198 3.436 2.438 0 1.22-.9 2.01-2.536 2.01-1.234 0-2.102-.395-2.702-.955zm6.138.824V14.5h1.569v5.996H51.56zm2.503-2.999c0-1.91 1.468-3.097 3.302-3.097 1.368 0 2.169.725 2.603 1.45l-1.301.659c-.234-.395-.701-.758-1.302-.758-1 0-1.701.758-1.701 1.746 0 .989.7 1.747 1.701 1.747.434 0 .901-.165 1.135-.363v-.461h-1.368v-1.35h2.936v2.404c-.667.725-1.535 1.186-2.703 1.186-1.801-.033-3.303-1.252-3.303-3.163zm11.242 2.999l-2.569-3.46v3.493h-1.568v-6.03h1.601l2.47 3.295V14.5h1.567v5.997h-1.501zM11.157.002H.748v25.93h10.476c8.808 0 14.48-5.107 14.48-12.981C25.67 5.076 19.997.002 11.156.002zm-.267 20.724H6.253V5.571h4.704c5.438 0 9.242 2.108 9.242 7.412 0 4.25-3.47 7.743-9.309 7.743z"/><path d="M11.957 9.887h-1.201v6.16h1.201c2.369 0 3.77-1.416 3.77-3.162-.033-2.142-1.568-2.998-3.77-2.998z"/></symbol><symbol viewBox="0 0 35 35" id="facebook" xmlns="http://www.w3.org/2000/svg"><path d="M26.25.007L21.71 0c-5.099 0-8.394 3.38-8.394 8.614v3.971H8.753a.714.714 0 0 0-.714.714v5.754c0 .395.32.714.714.714h4.563v14.52c0 .394.32.713.714.713h5.954c.394 0 .713-.32.713-.714v-14.52h5.336a.713.713 0 0 0 .714-.713l.002-5.754a.715.715 0 0 0-.714-.714h-5.338V9.218c0-1.618.386-2.44 2.494-2.44h3.057c.394 0 .714-.32.714-.714V.721a.714.714 0 0 0-.713-.714z"/></symbol><symbol viewBox="0 0 35 35" id="instagram" xmlns="http://www.w3.org/2000/svg"><path d="M24.063 0H10.938C4.897 0 0 4.898 0 10.938v13.124C0 30.102 4.898 35 10.938 35h13.124C30.102 35 35 30.102 35 24.062V10.938C35 4.897 30.102 0 24.062 0zm7.656 24.063c0 4.221-3.435 7.656-7.657 7.656H10.938c-4.221 0-7.656-3.435-7.656-7.657V10.938c0-4.221 3.435-7.656 7.656-7.656h13.126c4.221 0 7.656 3.435 7.656 7.656v13.126z"/><path d="M17.5 8.75a8.75 8.75 0 1 0 0 17.5 8.75 8.75 0 0 0 0-17.5zm0 14.219a5.476 5.476 0 0 1-5.469-5.469 5.475 5.475 0 0 1 5.469-5.469 5.475 5.475 0 0 1 5.469 5.469 5.476 5.476 0 0 1-5.469 5.469zM26.906 9.26a1.166 1.166 0 1 0 0-2.332 1.166 1.166 0 0 0 0 2.332z"/></symbol><symbol viewBox="0 0 122 52" id="logo" xmlns="http://www.w3.org/2000/svg"><g clip-path="url(#nclip0)"><path d="M26.93.035C26.682 0 26.398 0 26.15 0 11.73 0 0 11.67 0 26.018S11.729 52 26.15 52C40.573 52 52.3 40.33 52.3 26.018 52.267 11.916 40.963.458 26.93.035zm-.78 50.555c-13.642 0-24.733-11.035-24.733-24.572C1.417 12.445 12.508 1.41 26.15 1.41c13.643 0 24.733 11.035 24.733 24.608 0 13.537-11.126 24.572-24.733 24.572z"/><path d="M26.15 2.327c-13.111 0-23.812 10.611-23.812 23.69 0 13.045 10.666 23.692 23.812 23.692 13.11 0 23.812-10.612 23.812-23.691C49.925 12.938 39.26 2.327 26.15 2.327zm-7.725 9.307c0-4.23 3.473-7.686 7.725-7.686 5.74 0 10.382 4.69 10.382 10.471 0 .458-.035.881-.106 1.34-.78 5.393-8.894 4.724-8.894-.74a1.36 1.36 0 0 0-1.382-1.376c-.78 0-1.382.6-1.382 1.375v9.59h-6.343V11.634zM3.968 26.018c0-1.058.07-2.08.212-3.103 1.914 2.186 4.465 3.667 7.335 4.195l-6.023 6.84a21.22 21.22 0 0 1-1.524-7.932zm9 17.697a23.124 23.124 0 0 1-4.5-4.407 3.762 3.762 0 0 1 .177-4.794l4.323-4.9v14.101zm0-19.143a9.95 9.95 0 0 1-4.146-1.375c-2.693-1.586-3.614-5.076-2.126-7.79a22.18 22.18 0 0 1 6.272-7.158v16.323zm13.182 23.48h-.071c-4.252 0-7.619-3.526-7.619-7.756V27.392h6.414c.709 6.523 6.307 11.705 13.075 11.705h5.989c-4.04 5.43-10.489 8.954-17.788 8.954zm11.764-11.705c-5.28 0-9.638-3.984-10.276-9.06 6.52-.74 11.587-6.205 11.658-12.868a13.1 13.1 0 0 0-2.516-7.756 22.355 22.355 0 0 1 8.114 7.615h-2.799a4.955 4.955 0 0 0 1.984 3.35 10.44 10.44 0 0 1 4.182 6.909c.035.494.035.952.035 1.445v.212c-.07 5.64-4.748 10.153-10.382 10.153zm37.171-2.827c0 .424.142.776.425 1.023.284.247.709.388 1.311.388h.744v.247h-7.689v-.247h.744c1.17 0 1.736-.494 1.736-1.48v-6.593h-2.444c-.71.176-1.17.634-1.453 1.34-.248.74-.425 1.656-.532 2.784-.035.846-.142 1.552-.283 2.08-.142.565-.355.988-.603 1.305-.248.317-.566.564-.92.67-.355.14-.78.211-1.241.211-.496 0-.886-.106-1.205-.317a1.518 1.518 0 0 1-.638-.846c-.141-.353-.177-.74-.141-1.199.035-.458.141-.917.319-1.41a.573.573 0 0 1 .318-.106c.107 0 .213.07.284.141-.284.388-.46.776-.567 1.164a2.445 2.445 0 0 0-.07.987c.035.282.14.529.282.705a.741.741 0 0 0 .567.282c.284 0 .461-.106.567-.282.107-.176.178-.423.213-.776.035-.317.035-.74.035-1.198 0-.459.036-.988.107-1.552a5.02 5.02 0 0 1 .319-1.445 4.05 4.05 0 0 1 .638-1.305c.248-.387.566-.74.956-.987.355-.282.815-.458 1.311-.528v-.07c-.496-.036-.956-.177-1.417-.353a5.636 5.636 0 0 1-1.24-.776 3.78 3.78 0 0 1-.886-1.199c-.213-.493-.319-1.022-.319-1.657 0-1.586.496-2.785 1.524-3.56 1.027-.776 2.657-1.164 4.925-1.164.709 0 1.417.036 2.162.07.744.036 1.381.071 1.877.071h2.764v.247h-.744c-1.17 0-1.736.494-1.736 1.48v13.856zm-2.728-15.23c-.638-.175-1.205-.281-1.63-.281-.993 0-1.737.14-2.197.458-.496.317-.815.67-.993 1.128a3.504 3.504 0 0 0-.212 1.516c.035.564.035 1.058.035 1.551 0 .564.036 1.093.071 1.587.036.493.177.881.39 1.234.213.352.532.599.957.81.425.212 1.027.283 1.771.283.355 0 .71-.036.992-.07.32-.036.568-.142.816-.318V18.29zm9.638 1.34c0-.987-.567-1.48-1.737-1.48h-.744v-.247h2.764c.532 0 1.17-.035 1.878-.07.744-.036 1.453-.071 2.162-.071 1.24 0 2.303.106 3.189.317.85.212 1.559.53 2.055.952.531.423.886.952 1.098 1.551.213.635.32 1.34.32 2.116 0 1.692-.568 3.067-1.702 4.054-1.134.987-2.799 1.516-4.96 1.516-.248 0-.496 0-.815-.035-.32 0-.567-.036-.815-.071v5.218c0 .987.567 1.48 1.736 1.48h.744v.247h-7.69v-.247h.745c.602 0 1.063-.14 1.311-.387.283-.247.425-.6.425-1.023V19.63h.036zm2.728 7.933c.177.176.496.282.886.388.425.105.815.14 1.17.14.779 0 1.381-.14 1.806-.387.426-.247.745-.635.957-1.093.213-.458.319-1.023.355-1.622.035-.634.07-1.304.07-2.045v-1.586c0-.564-.106-1.093-.319-1.587-.212-.493-.566-.88-1.063-1.233-.496-.318-1.24-.494-2.197-.494-.248 0-.496 0-.744.035-.283 0-.567.07-.886.141v9.343h-.035zm17.398 4.689l-6.13-12.128c-.177-.352-.354-.634-.46-.916-.142-.247-.284-.459-.426-.6a1.402 1.402 0 0 0-.531-.352 2.447 2.447 0 0 0-.78-.106h-.283v-.247h7.689v.247h-.744c-.603 0-1.063.176-1.347.529-.283.352-.283.81.036 1.41l4.11 8.39h.106l2.339-7.685c.248-.81.248-1.445.036-1.94-.213-.493-.638-.704-1.241-.704h-.744v-.247h5.067v.247h-.248c-.602 0-1.134.282-1.594.881-.461.6-.851 1.41-1.17 2.433l-3.401 10.788c-.213.67-.425 1.198-.674 1.586-.248.423-.496.74-.779.952a1.814 1.814 0 0 1-.78.458c-.248.07-.46.141-.637.141-.248 0-.496-.035-.78-.14-.248-.107-.496-.212-.709-.424a2.032 2.032 0 0 1-.531-.67c-.142-.247-.213-.564-.213-.916 0-.423.071-.776.248-1.093.142-.282.355-.529.603-.67.248-.141.531-.212.815-.212.283 0 .602.141.85.353l.035.176a2 2 0 0 0-.141.776c0 .247.035.458.106.67.07.211.177.352.319.458a.77.77 0 0 0 .496.176c.177 0 .354-.07.602-.211s.426-.423.532-.811l.354-.6zm14.564-14.596c.708 0 1.311.036 1.842.106.532.07 1.028.106 1.418.106.389 0 .744-.035 1.027-.106.284-.106.496-.282.638-.6l.177.107a8.12 8.12 0 0 0-.248 1.48 25.69 25.69 0 0 0-.142 1.763c-.035.6-.07 1.269-.07 1.904 0 .67-.036 1.304-.036 1.939h-.177c-.142-2.292-.567-3.914-1.311-4.936-.744-.987-1.772-1.516-3.118-1.516-.78 0-1.418.141-1.914.423a3.57 3.57 0 0 0-1.204 1.093 4.292 4.292 0 0 0-.603 1.551c-.142.564-.212 1.164-.248 1.798-.035.6-.035 1.234-.035 1.833.035.6.035 1.129.035 1.622 0 .529 0 1.128-.035 1.763a18.054 18.054 0 0 0 .212 3.913c.142.635.319 1.199.638 1.692.284.494.709.882 1.205 1.164.496.282 1.169.458 1.984.458a2.85 2.85 0 0 0 1.914-.705c.531-.459.956-1.058 1.346-1.798.354-.74.638-1.516.851-2.397.212-.882.354-1.693.425-2.503h.177v2.08c0 .74.035 1.48.106 2.22.036.74.107 1.41.177 2.01.071.635.178 1.128.284 1.516l-.213.141c-.177-.494-.496-.81-.921-.917a3.047 3.047 0 0 0-1.382 0c-.496.106-1.028.212-1.524.388a4 4 0 0 1-1.275.247 6.885 6.885 0 0 1-2.941-.635 6.395 6.395 0 0 1-2.304-1.833 8.464 8.464 0 0 1-1.523-2.855c-.355-1.129-.532-2.363-.532-3.737 0-1.27.177-2.468.532-3.526a8.639 8.639 0 0 1 1.523-2.75 6.693 6.693 0 0 1 2.304-1.798c.921-.493 1.878-.705 2.941-.705z"/></g><defs><clipPath id="nclip0"><path d="M0 0h122v52H0z"/></clipPath></defs></symbol><symbol viewBox="0 0 25 25" id="modal_close" xmlns="http://www.w3.org/2000/svg"><path d="M25 24.1L13.4 12.5 25 .9l-.9-.9-11.6 11.6L.9 0 0 .9l11.6 11.6L0 24.1l.9.9 11.6-11.6L24.1 25l.9-.9z"/></symbol><symbol viewBox="0 0 26 26" id="rews_arrow" xmlns="http://www.w3.org/2000/svg"><g clip-path="url(#pclip0)"><path d="M25.588 12.592l-6.56-6.56-.82.82 5.572 5.572-23.2-.004v1.156l23.2.004-5.161 5.162.82.82 6.15-6.15a.58.58 0 0 0 0-.82z"/></g><defs><clipPath id="pclip0"><path transform="rotate(45 6.5 15.692)" d="M0 0h18.385v18.385H0z"/></clipPath></defs></symbol><symbol viewBox="0 0 40 40" id="vk" xmlns="http://www.w3.org/2000/svg"><g clip-path="url(#qclip0)"><path d="M39.788 29.2a2.74 2.74 0 0 0-.136-.26c-.694-1.25-2.02-2.785-3.977-4.604l-.042-.041-.02-.02-.021-.021h-.021c-.889-.848-1.451-1.417-1.687-1.709-.431-.555-.528-1.117-.292-1.687.166-.43.791-1.339 1.874-2.728.57-.736 1.02-1.325 1.354-1.77 2.402-3.193 3.443-5.234 3.124-6.123l-.124-.207c-.084-.125-.299-.24-.645-.344-.348-.104-.792-.121-1.334-.052l-5.998.041c-.097-.034-.235-.03-.416.01l-.271.064-.104.052-.083.062a.927.927 0 0 0-.23.219 1.429 1.429 0 0 0-.207.364 34.014 34.014 0 0 1-2.229 4.686 44.385 44.385 0 0 1-1.416 2.239c-.43.632-.792 1.097-1.083 1.395a7.554 7.554 0 0 1-.792.719c-.236.18-.416.257-.54.229a15.639 15.639 0 0 1-.355-.084 1.385 1.385 0 0 1-.469-.51 2.286 2.286 0 0 1-.24-.812 8.962 8.962 0 0 1-.072-.844 17.13 17.13 0 0 1 .01-1c.015-.43.021-.721.021-.874 0-.528.01-1.1.031-1.718.021-.618.038-1.108.052-1.468.015-.361.021-.743.021-1.146 0-.403-.024-.718-.073-.948a3.238 3.238 0 0 0-.218-.666 1.122 1.122 0 0 0-.427-.5 2.406 2.406 0 0 0-.698-.281c-.735-.167-1.672-.257-2.811-.27-2.583-.029-4.242.138-4.978.5-.291.152-.555.36-.791.624-.25.305-.285.472-.104.5.833.124 1.422.423 1.77.895l.125.25c.097.18.194.5.291.958.098.458.16.965.188 1.52.07 1.014.07 1.882 0 2.603a30.95 30.95 0 0 1-.198 1.687c-.063.403-.156.73-.281.98a4.11 4.11 0 0 1-.25.457.358.358 0 0 1-.104.104c-.18.07-.368.105-.563.105-.194 0-.43-.098-.708-.292a5.001 5.001 0 0 1-.864-.802c-.298-.34-.635-.816-1.01-1.426A24.883 24.883 0 0 1 10.6 15.09l-.334-.604a52.177 52.177 0 0 1-.853-1.698 32.715 32.715 0 0 1-.958-2.155 1.373 1.373 0 0 0-.5-.667l-.104-.062a1.425 1.425 0 0 0-.333-.177 2.21 2.21 0 0 0-.48-.136l-5.706.042c-.583 0-.979.132-1.187.396l-.083.124c-.042.07-.063.181-.063.334 0 .153.042.34.125.562a68.737 68.737 0 0 0 2.718 5.665c.979 1.819 1.83 3.284 2.55 4.394A51.885 51.885 0 0 0 7.6 24.253c.75.985 1.247 1.617 1.49 1.895.243.278.434.486.572.625l.521.5c.333.333.823.732 1.468 1.197.646.465 1.361.923 2.145 1.375.785.45 1.698.819 2.74 1.103a9.47 9.47 0 0 0 3.04.344h2.395c.486-.042.854-.194 1.104-.458l.083-.104c.055-.083.108-.212.156-.385a2.15 2.15 0 0 0 .073-.573 6.867 6.867 0 0 1 .135-1.614c.104-.479.222-.84.354-1.083.132-.243.282-.448.448-.614.166-.166.285-.267.354-.302a1.36 1.36 0 0 1 .167-.073c.333-.11.725-.003 1.177.323.45.326.874.73 1.27 1.208.396.48.871 1.017 1.427 1.614.555.597 1.04 1.041 1.457 1.333l.417.25c.278.167.639.32 1.083.458.444.139.832.174 1.166.104l5.331-.083c.528 0 .938-.087 1.23-.26.29-.174.464-.365.52-.573.056-.208.059-.444.01-.709a2.62 2.62 0 0 0-.146-.551z"/></g><defs><clipPath id="qclip0"><path d="M0 0h40v40H0z"/></clipPath></defs></symbol></svg>