<?xml version="1.0" standalone="no"?>
<!DOCTYPE svg PUBLIC "-//W3C//DTD SVG 20010904//EN"
 "http://www.w3.org/TR/2001/REC-SVG-20010904/DTD/svg10.dtd">
<svg version="1.0" xmlns="http://www.w3.org/2000/svg"
 width="102.000000pt" height="102.000000pt" viewBox="0 0 102.000000 102.000000"
 preserveAspectRatio="xMidYMid meet">
<metadata>
Created by potrace 1.11, written by Peter Selinger 2001-2013
</metadata>
<g transform="translate(0.000000,102.000000) scale(0.100000,-0.100000)"
fill="#000000" stroke="none">
<path d="M386 1004 c-229 -61 -393 -274 -385 -503 5 -169 92 -321 234 -413
278 -180 661 -43 758 270 103 330 -135 657 -478 659 -44 0 -102 -5 -129 -13z
m248 -30 c156 -39 301 -180 341 -333 93 -356 -228 -680 -585 -590 -162 42
-285 157 -341 320 -28 83 -23 225 10 308 95 235 332 357 575 295z"/>
<path d="M414 965 c-88 -20 -162 -61 -228 -127 -258 -259 -139 -687 215 -773
245 -60 492 88 559 335 12 44 15 166 6 205 -32 133 -112 241 -229 309 -87 51
-226 73 -323 51z m174 -40 c20 -9 48 -26 61 -38 55 -51 78 -161 45 -212 -31
-47 -124 -41 -144 10 -6 14 -14 36 -20 50 -8 22 -13 24 -30 15 -18 -10 -21
-20 -19 -93 2 -128 7 -117 -61 -117 l-60 0 0 143 c0 161 10 195 69 234 40 27
104 30 159 8z m232 -116 c56 -57 61 -69 26 -69 -34 0 -25 -28 25 -75 130 -123
69 -322 -109 -351 -78 -12 -166 36 -201 110 -28 57 -27 63 13 70 44 8 109 52
141 96 52 70 65 182 30 250 -8 16 -15 32 -15 35 0 13 43 -19 90 -66z m-573
-266 c-10 -9 -89 31 -107 55 -35 44 -27 100 24 170 79 106 81 105 84 -70 1
-83 1 -153 -1 -155z m-64 -38 c38 -10 40 -17 9 -51 -15 -16 -39 -44 -54 -62
-27 -32 -27 -32 -39 -11 -6 12 -14 60 -17 107 l-5 85 39 -31 c21 -17 51 -34
67 -37z m298 -24 c4 0 9 -15 13 -33 15 -76 106 -167 183 -183 18 -3 64 -7 103
-7 38 0 70 -4 70 -8 0 -17 -102 -99 -152 -122 -60 -29 -99 -39 -166 -43 -63
-4 -112 17 -142 62 -23 34 -25 46 -28 176 -2 76 -1 144 1 151 4 10 77 15 118
7z m-231 -183 l0 -133 -50 52 c-54 56 -61 82 -33 123 19 28 74 90 80 90 1 0 3
-60 3 -132z"/>
</g>
</svg>
