<svg width="19" height="22" viewBox="0 0 19 22" fill="none" xmlns="http://www.w3.org/2000/svg">
<path d="M0.841797 8.2501C0.841797 3.87283 4.3061 0.323608 8.57864 0.323608C12.8513 0.323608 16.3155 3.87283 16.3155 8.2501C16.3155 10.0334 15.7416 11.6765 14.7718 13.0016L8.57869 21.4609L2.3856 13.0016C2.38559 13.0016 2.38559 13.0016 2.38558 13.0016C1.41581 11.6765 0.841797 10.0334 0.841797 8.2501ZM2.89449 8.2501C2.89449 11.4662 5.43957 14.0736 8.57864 14.0736C11.7178 14.0736 14.2628 11.4663 14.2628 8.2501C14.2628 5.03408 11.7178 2.42652 8.57864 2.42652C5.43955 2.42652 2.89449 5.03408 2.89449 8.2501Z" stroke="white" stroke-width="0.5"/>
<path d="M10.203 0C5.75608 0 2.15039 3.69407 2.15039 8.25003C2.15039 10.1057 2.74802 11.8165 3.75733 13.1956L10.2031 22L16.6487 13.1956C17.6581 11.8165 18.2557 10.1058 18.2557 8.25003C18.2557 3.69407 14.65 0 10.203 0ZM10.203 13.75C7.23834 13.75 4.83465 11.2875 4.83465 8.25003C4.83465 5.21268 7.23834 2.74997 10.203 2.74997C13.1678 2.74997 15.5714 5.21268 15.5714 8.25003C15.5714 11.2875 13.1678 13.75 10.203 13.75Z" fill="#B38144"/>
</svg>
