<svg width="45" height="45" viewBox="0 0 45 45" fill="none" xmlns="http://www.w3.org/2000/svg">
<circle cx="22.5" cy="22.5" r="22.5" fill="white"/>
<g clip-path="url(#clip0)">
<path d="M34 16.6324H28.1106C28.4251 16.1828 28.5965 15.6486 28.5965 15.0859C28.5965 14.3622 28.3163 13.6837 27.808 13.1753C26.7547 12.1221 25.0406 12.1221 23.9873 13.1753L22.8954 14.2672L21.8039 13.1753C20.7506 12.1221 19.0365 12.1221 17.9832 13.1753C17.4749 13.6837 17.1947 14.3622 17.1947 15.0859C17.1947 15.6486 17.3661 16.1828 17.6806 16.6324H12V22.0359H13.9298V33.6149H32.4561V22.0359H34V16.6324ZM24.5331 13.7211C25.2857 12.9689 26.51 12.9689 27.2622 13.7211C27.6246 14.0839 27.8246 14.5683 27.8246 15.0859C27.8246 15.6031 27.6246 16.0878 27.2622 16.4503L27.08 16.6324H21.6217L23.4412 14.813L24.5331 13.7211ZM18.529 16.4503C18.1666 16.0878 17.9666 15.6031 17.9666 15.0859C17.9666 14.5683 18.1666 14.0839 18.529 13.7211C19.2816 12.9689 20.5059 12.9689 21.2581 13.7211L22.3496 14.813L20.9853 16.1774C20.9054 16.2573 20.832 16.3476 20.761 16.4433C20.7402 16.4715 20.7197 16.502 20.6996 16.5317C20.6765 16.5657 20.6522 16.5962 20.6302 16.6321H18.7112L18.529 16.4503ZM12.7719 21.264V17.4044H18.3912H20.218H21.0883H22.807V21.264H13.9298H12.7719ZM22.807 22.0359V26.6675H14.7018V22.0359H22.807ZM14.7018 27.4395H22.807V32.843H14.7018V27.4395ZM23.5789 32.843V27.4395H31.6842V32.843H23.5789ZM31.6842 26.6675H23.5789V22.0359H31.6842V26.6675ZM33.2281 21.264H32.4561H23.5789V17.4044H27.3996H33.2281V21.264Z" fill="#2B2B2B"/>
</g>
<defs>
<clipPath id="clip0">
<rect width="22" height="22" fill="white" transform="translate(12 12)"/>
</clipPath>
</defs>
</svg>
