<svg width="29" height="29" viewBox="0 0 29 29" fill="none" xmlns="http://www.w3.org/2000/svg">
<path d="M28.5167 4.59158H23.2V0.72491C23.2 0.45799 22.9836 0.241577 22.7167 0.241577H6.28333C6.01641 0.241577 5.8 0.45799 5.8 0.72491V7.49158H0.483333C0.216412 7.49158 0 7.70799 0 7.97491V27.7916C0 28.0585 0.216412 28.2749 0.483333 28.2749C0.750254 28.2749 0.966667 28.0585 0.966667 27.7916V8.45824H5.8V28.2749C5.8 28.5418 6.01641 28.7582 6.28333 28.7582H22.7167C22.9836 28.7582 23.2 28.5418 23.2 28.2749V5.55824H28.0333V27.7916C28.0333 28.0585 28.2497 28.2749 28.5167 28.2749C28.7836 28.2749 29 28.0585 29 27.7916V5.07491C29 4.80799 28.7836 4.59158 28.5167 4.59158ZM14.0167 27.7916H12.0833V23.4416H14.0167V27.7916ZM16.9167 27.7916H14.9833V23.4416H16.9167V27.7916ZM22.2333 27.7916H17.8833V22.9582C17.8833 22.6913 17.6669 22.4749 17.4 22.4749H11.6C11.3331 22.4749 11.1167 22.6913 11.1167 22.9582V27.7916H6.76667V1.20824H22.2333V27.7916Z" fill="#2B2B2B"/>
<path d="M11.1158 2.17505H8.21576C7.94883 2.17505 7.73242 2.39146 7.73242 2.65838V5.55838C7.73242 5.8253 7.94883 6.04171 8.21576 6.04171H11.1158C11.3827 6.04171 11.5991 5.8253 11.5991 5.55838V2.65838C11.5991 2.39146 11.3827 2.17505 11.1158 2.17505ZM10.6324 5.07505H8.69909V3.14172H10.6324V5.07505Z" fill="#2B2B2B"/>
<path d="M15.9497 2.17505H13.0497C12.7828 2.17505 12.5664 2.39146 12.5664 2.65838V5.55838C12.5664 5.8253 12.7828 6.04171 13.0497 6.04171H15.9497C16.2167 6.04171 16.4331 5.8253 16.4331 5.55838V2.65838C16.4331 2.39146 16.2167 2.17505 15.9497 2.17505ZM15.4664 5.07505H13.5331V3.14172H15.4664V5.07505Z" fill="#2B2B2B"/>
<path d="M20.7837 2.17505H17.8837C17.6168 2.17505 17.4004 2.39146 17.4004 2.65838V5.55838C17.4004 5.8253 17.6168 6.04171 17.8837 6.04171H20.7837C21.0506 6.04171 21.2671 5.8253 21.2671 5.55838V2.65838C21.2671 2.39146 21.0506 2.17505 20.7837 2.17505ZM20.3004 5.07505H18.3671V3.14172H20.3004V5.07505Z" fill="#2B2B2B"/>
<path d="M11.1158 7.00842H8.21576C7.94883 7.00842 7.73242 7.22484 7.73242 7.49176V10.3918C7.73242 10.6587 7.94883 10.8751 8.21576 10.8751H11.1158C11.3827 10.8751 11.5991 10.6587 11.5991 10.3918V7.49176C11.5991 7.22484 11.3827 7.00842 11.1158 7.00842ZM10.6324 9.90842H8.69909V7.97509H10.6324V9.90842Z" fill="#2B2B2B"/>
<path d="M15.9497 7.00842H13.0497C12.7828 7.00842 12.5664 7.22484 12.5664 7.49176V10.3918C12.5664 10.6587 12.7828 10.8751 13.0497 10.8751H15.9497C16.2167 10.8751 16.4331 10.6587 16.4331 10.3918V7.49176C16.4331 7.22484 16.2167 7.00842 15.9497 7.00842ZM15.4664 9.90842H13.5331V7.97509H15.4664V9.90842Z" fill="#2B2B2B"/>
<path d="M20.7837 7.00842H17.8837C17.6168 7.00842 17.4004 7.22484 17.4004 7.49176V10.3918C17.4004 10.6587 17.6168 10.8751 17.8837 10.8751H20.7837C21.0506 10.8751 21.2671 10.6587 21.2671 10.3918V7.49176C21.2671 7.22484 21.0506 7.00842 20.7837 7.00842ZM20.3004 9.90842H18.3671V7.97509H20.3004V9.90842Z" fill="#2B2B2B"/>
<path d="M11.1158 11.8417H8.21576C7.94883 11.8417 7.73242 12.0581 7.73242 12.325V15.225C7.73242 15.4919 7.94883 15.7083 8.21576 15.7083H11.1158C11.3827 15.7083 11.5991 15.4919 11.5991 15.225V12.325C11.5991 12.0581 11.3827 11.8417 11.1158 11.8417ZM10.6324 14.7417H8.69909V12.8083H10.6324V14.7417Z" fill="#2B2B2B"/>
<path d="M15.9497 11.8417H13.0497C12.7828 11.8417 12.5664 12.0581 12.5664 12.325V15.225C12.5664 15.4919 12.7828 15.7083 13.0497 15.7083H15.9497C16.2167 15.7083 16.4331 15.4919 16.4331 15.225V12.325C16.4331 12.0581 16.2167 11.8417 15.9497 11.8417ZM15.4664 14.7417H13.5331V12.8083H15.4664V14.7417Z" fill="#2B2B2B"/>
<path d="M20.7837 11.8417H17.8837C17.6168 11.8417 17.4004 12.0581 17.4004 12.325V15.225C17.4004 15.4919 17.6168 15.7083 17.8837 15.7083H20.7837C21.0506 15.7083 21.2671 15.4919 21.2671 15.225V12.325C21.2671 12.0581 21.0506 11.8417 20.7837 11.8417ZM20.3004 14.7417H18.3671V12.8083H20.3004V14.7417Z" fill="#2B2B2B"/>
<path d="M11.1158 16.675H8.21576C7.94883 16.675 7.73242 16.8915 7.73242 17.1584V20.0584C7.73242 20.3253 7.94883 20.5417 8.21576 20.5417H11.1158C11.3827 20.5417 11.5991 20.3253 11.5991 20.0584V17.1584C11.5991 16.8915 11.3827 16.675 11.1158 16.675ZM10.6324 19.5751H8.69909V17.6417H10.6324V19.5751Z" fill="#2B2B2B"/>
<path d="M15.9497 16.675H13.0497C12.7828 16.675 12.5664 16.8915 12.5664 17.1584V20.0584C12.5664 20.3253 12.7828 20.5417 13.0497 20.5417H15.9497C16.2167 20.5417 16.4331 20.3253 16.4331 20.0584V17.1584C16.4331 16.8915 16.2167 16.675 15.9497 16.675ZM15.4664 19.5751H13.5331V17.6417H15.4664V19.5751Z" fill="#2B2B2B"/>
<path d="M20.7837 16.675H17.8837C17.6168 16.675 17.4004 16.8915 17.4004 17.1584V20.0584C17.4004 20.3253 17.6168 20.5417 17.8837 20.5417H20.7837C21.0506 20.5417 21.2671 20.3253 21.2671 20.0584V17.1584C21.2671 16.8915 21.0506 16.675 20.7837 16.675ZM20.3004 19.5751H18.3671V17.6417H20.3004V19.5751Z" fill="#2B2B2B"/>
<path d="M2.90026 9.42505H2.41693C2.15001 9.42505 1.93359 9.64146 1.93359 9.90838V10.3917C1.93359 10.6586 2.15001 10.8751 2.41693 10.8751H2.90026C3.16718 10.8751 3.38359 10.6586 3.38359 10.3917V9.90838C3.38359 9.64146 3.16718 9.42505 2.90026 9.42505Z" fill="#2B2B2B"/>
<path d="M4.83385 9.42505H4.35052C4.0836 9.42505 3.86719 9.64146 3.86719 9.90838V10.3917C3.86719 10.6586 4.0836 10.8751 4.35052 10.8751H4.83385C5.10077 10.8751 5.31719 10.6586 5.31719 10.3917V9.90838C5.31719 9.64146 5.10077 9.42505 4.83385 9.42505Z" fill="#2B2B2B"/>
<path d="M2.90026 11.3584H2.41693C2.15001 11.3584 1.93359 11.5748 1.93359 11.8417V12.3251C1.93359 12.592 2.15001 12.8084 2.41693 12.8084H2.90026C3.16718 12.8084 3.38359 12.592 3.38359 12.3251V11.8417C3.38359 11.5748 3.16718 11.3584 2.90026 11.3584Z" fill="#2B2B2B"/>
<path d="M4.83385 11.3584H4.35052C4.0836 11.3584 3.86719 11.5748 3.86719 11.8417V12.3251C3.86719 12.592 4.0836 12.8084 4.35052 12.8084H4.83385C5.10077 12.8084 5.31719 12.592 5.31719 12.3251V11.8417C5.31719 11.5748 5.10077 11.3584 4.83385 11.3584Z" fill="#2B2B2B"/>
<path d="M2.90026 13.2916H2.41693C2.15001 13.2916 1.93359 13.508 1.93359 13.775V14.2583C1.93359 14.5252 2.15001 14.7416 2.41693 14.7416H2.90026C3.16718 14.7416 3.38359 14.5252 3.38359 14.2583V13.775C3.38359 13.508 3.16718 13.2916 2.90026 13.2916Z" fill="#2B2B2B"/>
<path d="M4.83385 13.2916H4.35052C4.0836 13.2916 3.86719 13.508 3.86719 13.775V14.2583C3.86719 14.5252 4.0836 14.7416 4.35052 14.7416H4.83385C5.10077 14.7416 5.31719 14.5252 5.31719 14.2583V13.775C5.31719 13.508 5.10077 13.2916 4.83385 13.2916Z" fill="#2B2B2B"/>
<path d="M2.90026 15.225H2.41693C2.15001 15.225 1.93359 15.4414 1.93359 15.7083V16.1916C1.93359 16.4586 2.15001 16.675 2.41693 16.675H2.90026C3.16718 16.675 3.38359 16.4586 3.38359 16.1916V15.7083C3.38359 15.4414 3.16718 15.225 2.90026 15.225Z" fill="#2B2B2B"/>
<path d="M4.83385 15.225H4.35052C4.0836 15.225 3.86719 15.4414 3.86719 15.7083V16.1916C3.86719 16.4586 4.0836 16.675 4.35052 16.675H4.83385C5.10077 16.675 5.31719 16.4586 5.31719 16.1916V15.7083C5.31719 15.4414 5.10077 15.225 4.83385 15.225Z" fill="#2B2B2B"/>
<path d="M2.90026 17.1583H2.41693C2.15001 17.1583 1.93359 17.3747 1.93359 17.6417V18.125C1.93359 18.3919 2.15001 18.6083 2.41693 18.6083H2.90026C3.16718 18.6083 3.38359 18.3919 3.38359 18.125V17.6417C3.38359 17.3747 3.16718 17.1583 2.90026 17.1583Z" fill="#2B2B2B"/>
<path d="M4.83385 17.1583H4.35052C4.0836 17.1583 3.86719 17.3747 3.86719 17.6417V18.125C3.86719 18.3919 4.0836 18.6083 4.35052 18.6083H4.83385C5.10077 18.6083 5.31719 18.3919 5.31719 18.125V17.6417C5.31719 17.3747 5.10077 17.1583 4.83385 17.1583Z" fill="#2B2B2B"/>
<path d="M2.90026 19.0917H2.41693C2.15001 19.0917 1.93359 19.3081 1.93359 19.575V20.0583C1.93359 20.3253 2.15001 20.5417 2.41693 20.5417H2.90026C3.16718 20.5417 3.38359 20.3253 3.38359 20.0583V19.575C3.38359 19.3081 3.16718 19.0917 2.90026 19.0917Z" fill="#2B2B2B"/>
<path d="M4.83385 19.0917H4.35052C4.0836 19.0917 3.86719 19.3081 3.86719 19.575V20.0583C3.86719 20.3253 4.0836 20.5417 4.35052 20.5417H4.83385C5.10077 20.5417 5.31719 20.3253 5.31719 20.0583V19.575C5.31719 19.3081 5.10077 19.0917 4.83385 19.0917Z" fill="#2B2B2B"/>
<path d="M2.90026 21.025H2.41693C2.15001 21.025 1.93359 21.2414 1.93359 21.5084V21.9917C1.93359 22.2586 2.15001 22.475 2.41693 22.475H2.90026C3.16718 22.475 3.38359 22.2586 3.38359 21.9917V21.5084C3.38359 21.2414 3.16718 21.025 2.90026 21.025Z" fill="#2B2B2B"/>
<path d="M4.83385 21.025H4.35052C4.0836 21.025 3.86719 21.2414 3.86719 21.5084V21.9917C3.86719 22.2586 4.0836 22.475 4.35052 22.475H4.83385C5.10077 22.475 5.31719 22.2586 5.31719 21.9917V21.5084C5.31719 21.2414 5.10077 21.025 4.83385 21.025Z" fill="#2B2B2B"/>
<path d="M2.90026 22.9584H2.41693C2.15001 22.9584 1.93359 23.1748 1.93359 23.4417V23.925C1.93359 24.192 2.15001 24.4084 2.41693 24.4084H2.90026C3.16718 24.4084 3.38359 24.192 3.38359 23.925V23.4417C3.38359 23.1748 3.16718 22.9584 2.90026 22.9584Z" fill="#2B2B2B"/>
<path d="M4.83385 22.9584H4.35052C4.0836 22.9584 3.86719 23.1748 3.86719 23.4417V23.925C3.86719 24.192 4.0836 24.4084 4.35052 24.4084H4.83385C5.10077 24.4084 5.31719 24.192 5.31719 23.925V23.4417C5.31719 23.1748 5.10077 22.9584 4.83385 22.9584Z" fill="#2B2B2B"/>
<path d="M2.90026 24.8916H2.41693C2.15001 24.8916 1.93359 25.108 1.93359 25.3749V25.8583C1.93359 26.1252 2.15001 26.3416 2.41693 26.3416H2.90026C3.16718 26.3416 3.38359 26.1252 3.38359 25.8583V25.3749C3.38359 25.108 3.16718 24.8916 2.90026 24.8916Z" fill="#2B2B2B"/>
<path d="M4.83385 24.8916H4.35052C4.0836 24.8916 3.86719 25.108 3.86719 25.3749V25.8583C3.86719 26.1252 4.0836 26.3416 4.35052 26.3416H4.83385C5.10077 26.3416 5.31719 26.1252 5.31719 25.8583V25.3749C5.31719 25.108 5.10077 24.8916 4.83385 24.8916Z" fill="#2B2B2B"/>
<path d="M26.5827 6.52502H24.6493C24.3824 6.52502 24.166 6.74144 24.166 7.00836V8.94169C24.166 9.20861 24.3824 9.42503 24.6493 9.42503H26.5827C26.8496 9.42503 27.066 9.20861 27.066 8.94169V7.00836C27.066 6.74144 26.8496 6.52502 26.5827 6.52502ZM26.0993 8.45836H25.1327V7.49169H26.0993V8.45836Z" fill="#2B2B2B"/>
<path d="M26.5827 10.3916H24.6493C24.3824 10.3916 24.166 10.608 24.166 10.8749V12.8083C24.166 13.0752 24.3824 13.2916 24.6493 13.2916H26.5827C26.8496 13.2916 27.066 13.0752 27.066 12.8083V10.8749C27.066 10.608 26.8496 10.3916 26.5827 10.3916ZM26.0993 12.3249H25.1327V11.3583H26.0993V12.3249Z" fill="#2B2B2B"/>
<path d="M26.5827 14.2584H24.6493C24.3824 14.2584 24.166 14.4748 24.166 14.7418V16.6751C24.166 16.942 24.3824 17.1584 24.6493 17.1584H26.5827C26.8496 17.1584 27.066 16.942 27.066 16.6751V14.7418C27.066 14.4748 26.8496 14.2584 26.5827 14.2584ZM26.0993 16.1918H25.1327V15.2251H26.0993V16.1918Z" fill="#2B2B2B"/>
<path d="M26.5827 18.125H24.6493C24.3824 18.125 24.166 18.3414 24.166 18.6083V20.5417C24.166 20.8086 24.3824 21.025 24.6493 21.025H26.5827C26.8496 21.025 27.066 20.8086 27.066 20.5417V18.6083C27.066 18.3414 26.8496 18.125 26.5827 18.125ZM26.0993 20.0583H25.1327V19.0917H26.0993V20.0583Z" fill="#2B2B2B"/>
<path d="M26.5827 21.9916H24.6493C24.3824 21.9916 24.166 22.208 24.166 22.4749V24.4082C24.166 24.6752 24.3824 24.8916 24.6493 24.8916H26.5827C26.8496 24.8916 27.066 24.6752 27.066 24.4082V22.4749C27.066 22.208 26.8496 21.9916 26.5827 21.9916ZM26.0993 23.9249H25.1327V22.9582H26.0993V23.9249Z" fill="#2B2B2B"/>
</svg>
