<svg width="29" height="29" viewBox="0 0 29 29" fill="none" xmlns="http://www.w3.org/2000/svg">
<g clip-path="url(#clip0)">
<path d="M25.6601 20.4656C25.5011 20.3996 25.318 20.436 25.1963 20.5578L20.5446 25.2094C20.4229 25.3312 20.3864 25.5143 20.4524 25.6733C20.5182 25.8324 20.6735 25.9361 20.8456 25.9361H25.4973C25.7324 25.9361 25.923 25.7456 25.923 25.5104V20.8588C25.9229 20.6866 25.8192 20.5314 25.6601 20.4656ZM21.8731 25.0848L25.0715 21.8864V25.0848H21.8731Z" fill="black"/>
<path d="M28.7373 13.6429C28.5783 13.577 28.3952 13.6134 28.2734 13.7351L26.9986 15.0099V6.34212C26.9986 6.10701 26.808 5.91647 26.5729 5.91647H23.3025L24.4896 4.72928C24.4898 4.72911 24.49 4.72888 24.4902 4.72871L25.6341 3.58479C25.8792 3.33971 26.0141 3.01369 26.0141 2.66704C26.0141 2.3204 25.8792 1.99449 25.6341 1.74929L24.3113 0.426507C24.0662 0.181423 23.7402 0.0464478 23.3935 0.0464478C23.0469 0.0464478 22.7209 0.181423 22.4758 0.426507L21.3313 1.57099L19.9484 2.95393L16.9859 5.91641H3.77341V1.70545C3.77341 1.47034 3.58281 1.2798 3.34775 1.2798C1.50183 1.27991 0 2.78163 0 4.62766V22.7066C0 22.738 0.00362501 22.7686 0.0100821 22.7981C0.0688751 23.5814 0.407757 24.3091 0.974107 24.8616C1.57948 25.452 2.37863 25.7772 3.22439 25.7772H16.2313L13.7816 28.2269C13.6599 28.3486 13.6235 28.5316 13.6893 28.6907C13.7552 28.8498 13.9105 28.9535 14.0826 28.9535H28.5744C28.8095 28.9535 29.0001 28.763 29.0001 28.5278V14.0361C29.0001 13.864 28.8963 13.7088 28.7373 13.6429ZM23.0779 1.02854C23.2519 0.854428 23.5354 0.854428 23.7094 1.02854L25.0322 2.35139C25.2063 2.52544 25.2063 2.80882 25.0322 2.98293L24.1888 3.82642L22.2343 1.87204L23.0779 1.02854ZM21.6323 2.47401L23.5867 4.42835L22.8057 5.20936L20.8514 3.25503L21.6323 2.47401ZM28.1489 18.819H27.3635C27.1284 18.819 26.9379 19.0095 26.9379 19.2447C26.9379 19.4798 27.1284 19.6703 27.3635 19.6703H28.1489V20.953H27.3635C27.1284 20.953 26.9379 21.1435 26.9379 21.3787C26.9379 21.6138 27.1284 21.8043 27.3635 21.8043H28.1489V23.0869H27.3635C27.1284 23.0869 26.9379 23.2775 26.9379 23.5126C26.9379 23.7477 27.1284 23.9382 27.3635 23.9382H28.1489V25.2209H27.3635C27.1284 25.2209 26.9379 25.4115 26.9379 25.6466C26.9379 25.8817 27.1284 26.0722 27.3635 26.0722H28.1489V28.1024H15.1102L19.4096 23.8029C19.5759 23.6366 19.5759 23.3672 19.4096 23.201C19.3906 23.1819 19.3701 23.1653 19.3486 23.1506C19.1829 23.0371 18.9548 23.0538 18.8076 23.201L17.0826 24.926H3.22444C1.93349 24.926 0.894244 23.9181 0.853349 22.6295C0.855785 22.5486 0.862072 22.4684 0.872154 22.3891C0.872211 22.3887 0.872267 22.3882 0.872324 22.3878C0.877082 22.3501 0.882803 22.3126 0.889316 22.2753C0.890053 22.2711 0.890846 22.2668 0.891582 22.2626C0.897529 22.2293 0.904213 22.1963 0.911519 22.1633C0.913559 22.1541 0.915711 22.1449 0.917863 22.1358C0.92432 22.108 0.931287 22.0803 0.938764 22.0527C0.942842 22.0377 0.94709 22.0229 0.951451 22.008C0.957682 21.9864 0.964139 21.9648 0.970992 21.9435C0.977846 21.9221 0.985152 21.901 0.992572 21.8799C0.997727 21.8651 1.00282 21.8503 1.00838 21.8356C1.01874 21.8078 1.02973 21.7802 1.04106 21.7528C1.04429 21.7449 1.04746 21.737 1.0508 21.7291C1.06536 21.6951 1.08048 21.6615 1.09645 21.6283C1.09713 21.6269 1.09775 21.6255 1.09843 21.6241C1.43137 20.9351 2.07169 20.4214 2.84014 20.262C2.84229 20.2616 2.84444 20.2611 2.84659 20.2606C2.88182 20.2534 2.91739 20.2473 2.95319 20.2415C2.95914 20.2406 2.96509 20.2394 2.97115 20.2385C3.00349 20.2335 3.03617 20.2297 3.06885 20.226C3.07803 20.225 3.08715 20.2236 3.09638 20.2227C3.12793 20.2195 3.15976 20.2174 3.19159 20.2154C3.20167 20.2148 3.21176 20.2137 3.22184 20.2132C3.26353 20.2111 3.30555 20.21 3.34775 20.21C3.58281 20.21 3.77341 20.0195 3.77341 19.7844V16.6981C3.77341 16.463 3.58281 16.2724 3.34775 16.2724C3.11269 16.2724 2.9221 16.463 2.9221 16.6981V19.3855C2.20332 19.4764 1.53615 19.797 1.01007 20.3107C0.954736 20.3648 0.902287 20.421 0.851197 20.4781V4.62766C0.851197 3.39624 1.74759 2.37008 2.92204 2.16742V6.34212V14.9955V14.9956C2.92204 15.2306 3.11264 15.4212 3.34769 15.4212C3.58275 15.4212 3.77335 15.2306 3.77335 14.9956V14.9955V6.76778H16.1346L13.7815 9.12086C13.6153 9.28716 13.6153 9.5566 13.7815 9.72284C13.9478 9.88902 14.2173 9.88902 14.3835 9.72284L17.4632 6.64311C17.4633 6.643 17.4634 6.64288 17.4635 6.64283L20.2493 3.85695L22.2036 5.81134L21.9743 6.04062C21.9742 6.04079 21.9739 6.04096 21.9738 6.04113L13.3911 14.6239L11.4368 12.6696L13.1285 10.9778C13.2948 10.8115 13.2948 10.5421 13.1285 10.3758C12.9623 10.2097 12.6928 10.2097 12.5266 10.3758L10.5338 12.3686C10.5232 12.3792 10.5132 12.3905 10.5039 12.4021C10.5007 12.4059 10.498 12.41 10.495 12.4141C10.489 12.4221 10.4831 12.4301 10.4776 12.4385C10.4745 12.4433 10.4717 12.4483 10.4687 12.4534C10.464 12.4613 10.4595 12.4693 10.4554 12.4776C10.4527 12.4829 10.4502 12.4883 10.4477 12.4938C10.4439 12.5021 10.4404 12.5106 10.4372 12.5191C10.4361 12.5221 10.4346 12.525 10.4335 12.528L9.60423 14.8771L9.03884 16.4789C9.03137 16.5002 9.02598 16.5218 9.02196 16.5436H7.6064C7.37134 16.5436 7.18074 16.7342 7.18074 16.9693C7.18074 17.2044 7.37134 17.3949 7.6064 17.3949H19.3941C19.6292 17.3949 19.8198 17.2044 19.8198 16.9693C19.8198 16.7342 19.6292 16.5436 19.3941 16.5436H10.9369L13.5328 15.6273C13.5349 15.6265 13.537 15.6254 13.5391 15.6246C13.5492 15.6209 13.5591 15.6167 13.5689 15.6122C13.5728 15.6104 13.5767 15.6087 13.5805 15.6068C13.5907 15.6017 13.6007 15.5961 13.6106 15.5901C13.6138 15.5882 13.6171 15.5865 13.6202 15.5845C13.6304 15.5779 13.6404 15.5707 13.6502 15.5631C13.6526 15.5613 13.6552 15.5596 13.6576 15.5577C13.6694 15.5482 13.681 15.5379 13.692 15.5269L22.4511 6.76783H26.1472V15.8613L20.0586 21.95C19.8923 22.1163 19.8923 22.3857 20.0586 22.552C20.0689 22.5623 20.0798 22.5721 20.0909 22.5812C20.169 22.6448 20.2643 22.6766 20.3596 22.6766C20.4548 22.6766 20.5502 22.6448 20.6282 22.5812C20.6394 22.5721 20.6502 22.5623 20.6606 22.552C20.6607 22.5518 20.6606 22.552 20.6607 22.5518L28.1489 15.0636V18.819ZM12.6126 15.0492L11.3933 15.4796L10.581 14.6673L11.0114 13.448L12.6126 15.0492Z" fill="black"/>
</g>
<defs>
<clipPath id="clip0">
<rect width="29" height="29" fill="white"/>
</clipPath>
</defs>
</svg>
