<svg width="29" height="29" viewBox="0 0 29 29" fill="none" xmlns="http://www.w3.org/2000/svg">
<path d="M23.1268 10.8963H22.2188V11.7477H23.1268V10.8963Z" fill="#2B2B2B"/>
<path d="M24.9412 10.8963H24.0332V11.7477H24.9412V10.8963Z" fill="#2B2B2B"/>
<path d="M27.638 10.8962V9.08017H23.0979V4.51177H22.2465V9.08012H18.6144V10.8961H17.1958V3.6037H16.3444V28.1485H11.7478V24.5164H5.44809V28.1485H0.851479V0.851479H16.3443V2.24189H17.1958V0H0V29H21.3101V28.1485H17.1957V11.7476H21.3101V10.8962H19.4657V9.93159H26.7865V11.7476H28.1485V28.1485H22.6721V28.9999H28.9999V10.8962H27.638ZM10.8962 28.1485H6.29957V25.3679H8.17217V27.2123H9.02364V25.3679H10.8962V28.1485Z" fill="#2B2B2B"/>
<path d="M5.3919 1.81598H1.81641V5.39153H5.39196V1.81598H5.3919ZM4.54048 4.54005H2.66783V2.66746H4.54042V4.54005H4.54048Z" fill="#2B2B2B"/>
<path d="M15.3801 1.81598H11.8047V5.39153H15.3801V1.81598ZM14.5287 4.54005H12.6561V2.66746H14.5287V4.54005Z" fill="#2B2B2B"/>
<path d="M10.3861 1.81598H6.81055V5.39153H10.3861V1.81598ZM9.53462 4.54005H7.66203V2.66746H9.53462V4.54005Z" fill="#2B2B2B"/>
<path d="M5.3919 6.3562H1.81641V9.93164H5.39196V6.3562H5.3919ZM4.54048 9.08022H2.66783V7.20768H4.54042V9.08022H4.54048Z" fill="#2B2B2B"/>
<path d="M11.8047 9.93164H15.3801V6.3562H11.8047V9.93164ZM12.6562 7.20762H14.5287V9.08016H12.6562V7.20762Z" fill="#2B2B2B"/>
<path d="M10.3861 6.3562H6.81055V9.93164H10.3861V6.3562ZM9.53462 9.08022H7.66203V7.20768H9.53462V9.08022Z" fill="#2B2B2B"/>
<path d="M5.3919 10.8962H1.81641V14.4717H5.39196V10.8962H5.3919ZM4.54048 13.6203H2.66783V11.7477H4.54042V13.6203H4.54048Z" fill="#2B2B2B"/>
<path d="M11.8047 14.4717H15.3801V10.8962H11.8047V14.4717ZM12.6562 11.7476H14.5287V13.6202H12.6562V11.7476Z" fill="#2B2B2B"/>
<path d="M10.3861 10.8962H6.81055V14.4717H10.3861V10.8962ZM9.53462 13.6203H7.66203V11.7477H9.53462V13.6203Z" fill="#2B2B2B"/>
<path d="M5.3919 15.4363H1.81641V19.0117H5.39196V15.4363H5.3919ZM4.54048 18.1604H2.66783V16.2878H4.54042V18.1604H4.54048Z" fill="#2B2B2B"/>
<path d="M11.8047 19.0118H15.3801V15.4363H11.8047V19.0118ZM12.6562 16.2877H14.5287V18.1602H12.6562V16.2877Z" fill="#2B2B2B"/>
<path d="M10.3861 15.4363H6.81055V19.0117H10.3861V15.4363ZM9.53462 18.1604H7.66203V16.2878H9.53462V18.1604Z" fill="#2B2B2B"/>
<path d="M18.6152 16.7418H22.1907V13.1663H18.6152V16.7418ZM19.4667 14.0177H21.3393V15.8903H19.4667V14.0177Z" fill="#2B2B2B"/>
<path d="M23.1543 16.7418H26.7297V13.1663H23.1543V16.7418ZM24.0058 14.0177H25.8783V15.8903H24.0058V14.0177Z" fill="#2B2B2B"/>
<path d="M18.6152 21.7358H22.1907V18.1603H18.6152V21.7358ZM19.4667 19.0118H21.3393V20.8844H19.4667V19.0118Z" fill="#2B2B2B"/>
<path d="M23.1543 21.7358H26.7297V18.1603H23.1543V21.7358ZM24.0058 19.0118H25.8783V20.8844H24.0058V19.0118Z" fill="#2B2B2B"/>
<path d="M18.6152 26.7299H22.1907V23.1544H18.6152V26.7299ZM19.4667 24.0059H21.3393V25.8785H19.4667V24.0059Z" fill="#2B2B2B"/>
<path d="M23.1543 26.7299H26.7297V23.1544H23.1543V26.7299ZM24.0058 24.0059H25.8783V25.8785H24.0058V24.0059Z" fill="#2B2B2B"/>
<path d="M1.81641 23.5519H5.39196V19.9764H1.81641V23.5519ZM2.66783 20.8278H4.54042V22.7004H2.66783V20.8278Z" fill="#2B2B2B"/>
<path d="M11.8047 23.5519H15.3801V19.9764H11.8047V23.5519ZM12.6562 20.8278H14.5287V22.7004H12.6562V20.8278Z" fill="#2B2B2B"/>
<path d="M6.81055 23.5519H10.3861V19.9764H6.81055V23.5519ZM7.66203 20.8278H9.53462V22.7004H7.66203V20.8278Z" fill="#2B2B2B"/>
<path d="M15.8641 24.5164H15.4077H13.1401H12.6836V25.3678H13.1401H15.4077H15.8641V24.5164Z" fill="#2B2B2B"/>
<path d="M15.4077 27.1839H15.8641V26.3325H15.4077H13.1401H12.6836V27.1839H13.1401H15.4077Z" fill="#2B2B2B"/>
</svg>
