<svg width="29" height="29" viewBox="0 0 29 29" fill="none" xmlns="http://www.w3.org/2000/svg">
<g clip-path="url(#clip0)">
<path d="M7.69803 26.1706C7.50177 25.0343 6.50852 24.1667 5.31663 24.1667C4.36495 24.1667 3.54038 24.7197 3.14644 25.521C3.06862 25.4655 2.98547 25.4161 2.89994 25.3717V17.4001C2.89994 17.1333 2.68341 16.9167 2.41663 16.9167C2.14985 16.9167 1.93331 17.1333 1.93331 17.4001V25.1334C0.867111 25.1334 0 26.0005 0 27.0667C0 28.133 0.867111 29.0001 1.93331 29.0001H7.25C8.04943 29.0001 8.7 28.3495 8.7 27.5501C8.7 26.9067 8.27899 26.3601 7.69803 26.1706ZM7.25 28.0334H1.93331C1.40021 28.0334 0.966629 27.5998 0.966629 27.0667C0.966629 26.5335 1.40021 26.1001 1.93331 26.1001C2.38429 26.1001 2.78496 26.362 2.93042 26.7526C3.01209 26.9715 3.23831 27.1006 3.46935 27.059C3.69943 27.0174 3.86663 26.8173 3.86663 26.5834C3.86663 25.784 4.5172 25.1334 5.31663 25.1334C6.11606 25.1334 6.76663 25.784 6.76663 26.5834C6.76663 26.8502 6.98317 27.0667 7.24994 27.0667C7.51627 27.0667 7.73326 27.2837 7.73326 27.55C7.73326 27.8163 7.51632 28.0334 7.25 28.0334Z" fill="#2B2B2B"/>
<path d="M28.5167 3.86669H19.3333C19.0665 3.86669 18.85 4.08322 18.85 4.35C18.85 4.61678 19.0665 4.83331 19.3333 4.83331H28.0333V15.2666L14.8417 2.07497C14.747 1.98021 14.6227 1.93337 14.4985 1.93337C14.3743 1.93337 14.2501 1.98027 14.1553 2.07497L0.966686 15.2661V4.83331H6.28337C6.55015 4.83331 6.76669 4.61678 6.76669 4.35V2.41669C6.76669 2.14991 6.55015 1.93337 6.28337 1.93337H5.8V0.966686H8.7V1.93337H8.21669C7.94991 1.93337 7.73337 2.14991 7.73337 2.41669V4.35C7.73337 4.61678 7.94991 4.83331 8.21669 4.83331H9.66669C9.93346 4.83331 10.15 4.61678 10.15 4.35C10.15 4.08322 9.93346 3.86669 9.66669 3.86669H8.7V2.9H9.18331C9.45009 2.9 9.66663 2.68346 9.66663 2.41669V0.483314C9.66663 0.216537 9.45009 0 9.18331 0H5.31669C5.04991 0 4.83337 0.216537 4.83337 0.483314V2.41663C4.83337 2.68341 5.04991 2.89994 5.31669 2.89994H5.8V3.86663H0.483314C0.35525 3.86663 0.232 3.91738 0.141602 4.00823C0.05075 4.09869 0 4.22194 0 4.35L0.00192578 16.4333C0.00192578 16.6291 0.119852 16.805 0.300648 16.8799C0.360574 16.9046 0.422936 16.9167 0.485297 16.9167C0.611436 16.9167 0.735195 16.8674 0.82701 16.7751L14.4985 3.09864L28.1749 16.775C28.2672 16.8674 28.3909 16.9166 28.5166 16.9166C28.579 16.9166 28.6418 16.9046 28.7017 16.8799C28.882 16.8049 28.9999 16.6286 28.9999 16.4333V4.35C29 4.08322 28.7835 3.86669 28.5167 3.86669Z" fill="#2B2B2B"/>
<path d="M27.0663 25.1334V17.4001C27.0663 17.1333 26.8498 16.9167 26.583 16.9167C26.3162 16.9167 26.0997 17.1333 26.0997 17.4001V25.3717C26.0141 25.4161 25.931 25.4654 25.8532 25.521C25.4592 24.7197 24.6347 24.1667 23.683 24.1667C22.4911 24.1667 21.4978 25.0343 21.3016 26.1706C20.7206 26.3601 20.2996 26.9067 20.2996 27.5501C20.2996 27.7207 20.3344 27.8816 20.389 28.0334H12.0829C11.8161 28.0334 11.5996 28.2499 11.5996 28.5167C11.5996 28.7835 11.8161 29 12.0829 29H21.7496H23.6829H27.0662C28.1325 29.0001 28.9996 28.133 28.9996 27.0667C28.9996 26.0005 28.1325 25.1334 27.0663 25.1334ZM27.0663 28.0334H23.683H21.7496C21.4833 28.0334 21.2663 27.8164 21.2663 27.5501C21.2663 27.2837 21.4833 27.0667 21.7496 27.0667C22.0164 27.0667 22.2329 26.8502 22.2329 26.5834C22.2329 25.784 22.8835 25.1334 23.6829 25.1334C24.4824 25.1334 25.1329 25.784 25.1329 26.5834C25.1329 26.8174 25.3002 27.0175 25.5302 27.059C25.7598 27.1011 25.9875 26.9715 26.0691 26.7526C26.2146 26.3621 26.6153 26.1001 27.0662 26.1001C27.5993 26.1001 28.0329 26.5336 28.0329 27.0668C28.0329 27.6 27.5994 28.0334 27.0663 28.0334Z" fill="#2B2B2B"/>
<path d="M16.433 9.66659C16.433 8.60033 15.5659 7.73328 14.4997 7.73328C13.4335 7.73328 12.5664 8.60039 12.5664 9.66659C12.5664 10.7328 13.4335 11.5999 14.4997 11.5999C15.566 11.5999 16.433 10.7328 16.433 9.66659ZM13.533 9.66659C13.533 9.13349 13.9666 8.69991 14.4997 8.69991C15.0328 8.69991 15.4664 9.13343 15.4664 9.66659C15.4664 10.1997 15.0329 10.6333 14.4997 10.6333C13.9666 10.6332 13.533 10.1997 13.533 9.66659Z" fill="#2B2B2B"/>
<path d="M23.6838 16.4332H19.8171C19.5504 16.4332 19.3338 16.6498 19.3338 16.9165V22.2332H18.8505C18.5837 22.2332 18.3672 22.4498 18.3672 22.7165C18.3672 22.9833 18.5837 23.1999 18.8505 23.1999H24.6505C24.9173 23.1999 25.1338 22.9833 25.1338 22.7165C25.1338 22.4498 24.9173 22.2332 24.6505 22.2332H24.1672V16.9165C24.1672 16.6498 23.9507 16.4332 23.6838 16.4332ZM23.2005 22.2332H20.3005V20.2999H23.2005V22.2332ZM23.2005 19.3332H20.3005V17.3999H23.2005V19.3332Z" fill="#2B2B2B"/>
<path d="M19.3326 26.5833C19.3326 26.3165 19.116 26.1 18.8493 26.1H17.3993V16.9167C17.3993 16.6499 17.1827 16.4333 16.916 16.4333H12.0826C11.8159 16.4333 11.5993 16.6499 11.5993 16.9167V26.1H10.1493C9.88255 26.1 9.66602 26.3165 9.66602 26.5833V28.5166C9.66602 28.7834 9.88255 28.9999 10.1493 28.9999C10.4161 28.9999 10.6326 28.7834 10.6326 28.5166V27.0666H18.8493C19.116 27.0667 19.3326 26.8501 19.3326 26.5833ZM16.4326 21.2667H15.9493C15.6825 21.2667 15.466 21.4832 15.466 21.75C15.466 22.0168 15.6825 22.2333 15.9493 22.2333H16.4326V26.1H12.5659V17.4H16.4326V21.2667Z" fill="#2B2B2B"/>
<path d="M9.18382 16.4332H5.31719C5.05041 16.4332 4.83387 16.6498 4.83387 16.9165V22.2332H4.3505C4.08372 22.2332 3.86719 22.4498 3.86719 22.7165C3.86719 22.9833 4.08372 23.1999 4.3505 23.1999H10.1505C10.4173 23.1999 10.6338 22.9834 10.6338 22.7166C10.6338 22.4498 10.4173 22.2333 10.1505 22.2333H9.66719V16.9166C9.66719 16.6498 9.45065 16.4332 9.18382 16.4332ZM8.7005 22.2332H5.8005V20.2999H8.7005V22.2332ZM8.7005 19.3332H5.8005V17.3999H8.7005V19.3332Z" fill="#2B2B2B"/>
</g>
<defs>
<clipPath id="clip0">
<rect width="29" height="29" fill="white"/>
</clipPath>
</defs>
</svg>
