<svg width="29" height="29" viewBox="0 0 29 29" fill="none" xmlns="http://www.w3.org/2000/svg">
<g clip-path="url(#clip0)">
<path d="M21.2441 8.03906C21.1388 7.93371 20.9927 7.87311 20.8437 7.87311C20.6948 7.87311 20.5487 7.93371 20.4433 8.03906C20.3379 8.14442 20.2773 8.28998 20.2773 8.43951C20.2773 8.58848 20.3379 8.73461 20.4433 8.83996C20.5487 8.94531 20.6948 9.00592 20.8437 9.00592C20.9927 9.00592 21.1388 8.94531 21.2441 8.83996C21.3495 8.73461 21.4102 8.58848 21.4102 8.43951C21.4102 8.29055 21.3495 8.14442 21.2441 8.03906Z" fill="black"/>
<path d="M8.49608 15.9727H3.96484C3.65207 15.9727 3.39844 16.2262 3.39844 16.5391V21.0703C3.39844 21.3831 3.65207 21.6367 3.96484 21.6367H8.49608C8.80885 21.6367 9.06249 21.3831 9.06249 21.0703V16.5391C9.06249 16.2262 8.80891 15.9727 8.49608 15.9727ZM7.92968 20.5039H4.53125V17.1055H7.92968V20.5039Z" fill="black"/>
<path d="M28.6503 11.881C28.4387 11.7933 28.195 11.8419 28.033 12.0038L22.2615 17.7753C22.2614 17.7754 22.2613 17.7755 22.2612 17.7756C22.2611 17.7757 22.261 17.7758 22.261 17.7759L15.533 24.5039C15.5329 24.504 15.5328 24.5041 15.5327 24.5042C15.5326 24.5043 15.5325 24.5043 15.5324 24.5045L12.0038 28.0331C11.8418 28.1951 11.7934 28.4388 11.881 28.6504C11.9687 28.862 12.1752 29 12.4043 29H28.4336C28.7463 29 29 28.7464 29 28.4336V12.4043C29 12.1753 28.862 11.9687 28.6503 11.881ZM27.8671 27.8672H13.7718L15.9332 25.7057L16.4739 26.2464C16.5845 26.3571 16.7295 26.4123 16.8744 26.4123C17.0194 26.4123 17.1643 26.3571 17.2749 26.2464C17.4961 26.0253 17.4961 25.6666 17.2749 25.4454L16.7342 24.9047L18.1761 23.4628L18.7167 24.0035C18.8273 24.1141 18.9723 24.1694 19.1172 24.1694C19.2622 24.1694 19.4071 24.114 19.5177 24.0035C19.7389 23.7823 19.7389 23.4236 19.5177 23.2025L18.977 22.6618L20.4189 21.2199L20.9596 21.7606C21.0702 21.8712 21.2151 21.9265 21.3601 21.9265C21.505 21.9265 21.6499 21.8712 21.7606 21.7606C21.9817 21.5394 21.9817 21.1808 21.7606 20.9596L21.2199 20.4189L22.6617 18.9771L23.2023 19.5178C23.313 19.6284 23.4579 19.6837 23.6029 19.6837C23.7478 19.6837 23.8927 19.6284 24.0034 19.5178C24.2245 19.2966 24.2245 18.9379 24.0034 18.7167L23.4627 18.176L24.9045 16.7342L25.4451 17.2748C25.5558 17.3854 25.7007 17.4407 25.8456 17.4407C25.9906 17.4407 26.1355 17.3854 26.2462 17.2748C26.4673 17.0536 26.4673 16.695 26.2462 16.4738L25.7055 15.9331L27.8671 13.7718V27.8672Z" fill="black"/>
<path d="M25.8191 18.7182C25.6074 18.6305 25.3637 18.679 25.2018 18.8409L18.8417 25.2011C18.6798 25.3631 18.6312 25.6067 18.7189 25.8184C18.8066 26.03 19.0131 26.168 19.2422 26.168H25.6023C25.9151 26.168 26.1687 25.9144 26.1687 25.6016V19.2415C26.1687 19.0125 26.0307 18.8059 25.8191 18.7182ZM25.0359 25.0352H20.6097L25.0359 20.6089V25.0352Z" fill="black"/>
<path d="M26.2279 8.45445C26.072 8.29857 25.8399 8.24726 25.6327 8.3231L21.7652 9.7394C21.6879 9.76772 21.6177 9.81252 21.5594 9.87074L20.472 10.9582L13.3712 3.85733C13.2649 3.75113 13.1209 3.69143 12.9707 3.69143C12.8205 3.69143 12.6764 3.75113 12.5702 3.85733L4.02294 12.4046H1.93387L12.9707 1.3677L19.0272 7.42421C19.2484 7.6454 19.607 7.6454 19.8282 7.42421C20.0494 7.20303 20.0494 6.84439 19.8282 6.62315L13.3712 0.16613C13.15 -0.0550511 12.7915 -0.0550511 12.5702 0.16613L0.165892 12.5704C0.00395643 12.7324 -0.0445279 12.976 0.043095 13.1877C0.130775 13.3994 0.337286 13.5374 0.566397 13.5374H1.1328V28.4338C1.1328 28.7466 1.38644 29.0002 1.69921 29.0002H10.7043C11.017 29.0002 11.2707 28.7466 11.2707 28.4338C11.2707 28.121 11.017 27.8674 10.7043 27.8674H2.26561V13.5374H4.25755C4.40776 13.5374 4.55179 13.4777 4.65805 13.3715L12.9707 5.05885L19.6709 11.7591L11.2715 20.1586V15.0667H15.2363C15.5491 15.0667 15.8027 14.8131 15.8027 14.5003C15.8027 14.1874 15.5491 13.9339 15.2363 13.9339H10.705C10.3923 13.9339 10.1386 14.1874 10.1386 14.5003V21.0706C10.1386 21.1367 10.1505 21.1998 10.1713 21.2587L9.66388 21.7662C8.76726 22.6628 8.76726 24.1217 9.66388 25.0183C10.1122 25.4667 10.701 25.6909 11.29 25.6908C11.8788 25.6908 12.4678 25.4666 12.9161 25.0184L17.6927 20.2418C17.9139 20.0206 17.9139 19.662 17.6927 19.4408C17.4715 19.2196 17.113 19.2196 16.8916 19.4408L13.2727 23.0597L11.6226 21.4095L21.9712 11.0609L23.6214 12.711L19.667 16.6655C19.4458 16.8866 19.4458 17.2453 19.667 17.4665C19.8882 17.6876 20.2468 17.6876 20.4681 17.4665L24.8116 13.1229C24.8698 13.0647 24.9146 12.9945 24.9429 12.9172L26.3592 9.04974C26.4351 8.84266 26.3839 8.61038 26.2279 8.45445ZM12.4718 23.8606L12.1151 24.2173C11.8947 24.4377 11.6017 24.5591 11.29 24.5591C10.9783 24.5591 10.6853 24.4377 10.465 24.2173C10.2446 23.9969 10.1232 23.7039 10.1232 23.3923C10.1232 23.0807 10.2445 22.7876 10.4649 22.5672L10.8217 22.2105L12.4718 23.8606ZM24.1904 11.6779L23.0044 10.4919L24.8757 9.80663L24.1904 11.6779Z" fill="black"/>
<path d="M19.0703 18.0627C18.965 17.9573 18.8189 17.8967 18.6699 17.8967C18.521 17.8967 18.3748 17.9573 18.2695 18.0627C18.1641 18.1686 18.1035 18.3142 18.1035 18.4631C18.1035 18.6127 18.1641 18.7582 18.2695 18.8641C18.3748 18.9695 18.5204 19.0295 18.6699 19.0295C18.8189 19.0295 18.965 18.9695 19.0703 18.8641C19.1757 18.7582 19.2363 18.6121 19.2363 18.4631C19.2363 18.3142 19.1757 18.1686 19.0703 18.0627Z" fill="black"/>
<path d="M12.9707 8.5528C11.7839 8.5528 10.8184 9.51835 10.8184 10.7051C10.8184 11.8919 11.7839 12.8575 12.9707 12.8575C14.1575 12.8575 15.123 11.8919 15.123 10.7051C15.123 9.51835 14.1575 8.5528 12.9707 8.5528ZM12.9707 11.7247C12.4085 11.7247 11.9512 11.2673 11.9512 10.7051C11.9512 10.143 12.4085 9.68561 12.9707 9.68561C13.5329 9.68561 13.9902 10.143 13.9902 10.7051C13.9902 11.2673 13.5329 11.7247 12.9707 11.7247Z" fill="black"/>
</g>
<defs>
<clipPath id="clip0">
<rect width="29" height="29" fill="white"/>
</clipPath>
</defs>
</svg>
