<svg width="25" height="25" viewBox="0 0 25 25" fill="none" xmlns="http://www.w3.org/2000/svg">
<path d="M11.7078 11.2789C12.0179 10.9688 12.0179 10.465 11.7078 10.1549C11.3977 9.84481 10.8939 9.84481 10.5838 10.1549L6.37836 14.3603C5.66131 15.0774 5.27371 16.0076 5.27371 17.0154C5.27371 18.0231 5.66131 18.9533 6.37836 19.6704C7.85123 21.1433 10.235 21.1433 11.6884 19.6704L21.1846 10.1743C22.1729 9.18589 22.7156 7.86807 22.7156 6.47272C22.7156 5.07737 22.1729 3.75954 21.1846 2.77117C19.1303 0.716903 15.8163 0.716903 13.7621 2.77117L4.28534 12.2479C3.00627 13.527 2.30859 15.213 2.30859 17.0154C2.30859 18.8177 3.00627 20.5231 4.28534 21.7828C5.56441 23.0619 7.25045 23.7595 9.05278 23.7595C10.8551 23.7595 12.5605 23.0619 13.8202 21.7828L18.0256 17.5774C18.3357 17.2673 18.3357 16.7634 18.0256 16.4533C17.7156 16.1433 17.2117 16.1433 16.9016 16.4533L12.6962 20.6588C11.7272 21.6278 10.4287 22.1704 9.05278 22.1704C7.67681 22.1704 6.37836 21.6278 5.40937 20.6588C4.44038 19.6898 3.89774 18.3913 3.89774 17.0154C3.89774 15.6394 4.44038 14.3409 5.40937 13.3719L14.8861 3.8952C15.5838 3.19752 16.4946 2.82931 17.4636 2.82931C18.4326 2.82931 19.3629 3.2169 20.0412 3.8952C20.7388 4.59287 21.107 5.50372 21.107 6.47272C21.107 7.44171 20.7194 8.37194 20.0412 9.05024L10.545 18.5464C9.71169 19.3797 8.33573 19.3797 7.48301 18.5464C7.07604 18.1394 6.84348 17.5967 6.84348 17.0154C6.84348 16.434 7.07604 15.8913 7.48301 15.4843L11.7078 11.2789Z" fill="black"/>
</svg>
