<svg width="81" height="26" viewBox="0 0 81 26" fill="none" xmlns="http://www.w3.org/2000/svg">
<path d="M33.4766 11.501V5.47168H36.0455C37.9472 5.47168 39.3484 6.59188 39.3484 8.46978C39.3484 10.3478 37.9805 11.468 36.0789 11.468H33.4766V11.501ZM37.747 8.50278C37.747 7.58028 37.1798 6.85548 36.0789 6.85548H35.078V10.1501H36.0789C37.1131 10.1501 37.747 9.39238 37.747 8.50278Z" fill="#7D7D7D"/>
<path d="M39.9492 8.50276C39.9492 6.65766 41.3505 5.40576 43.2188 5.40576C45.0871 5.40576 46.455 6.69066 46.455 8.50276C46.455 10.3149 45.0537 11.5998 43.2188 11.5998C41.3171 11.5998 39.9492 10.3149 39.9492 8.50276ZM44.8536 8.50276C44.8536 7.51436 44.2197 6.75656 43.2188 6.75656C42.2179 6.75656 41.5506 7.51436 41.5506 8.50276C41.5506 9.49116 42.1845 10.249 43.2188 10.249C44.1863 10.249 44.8536 9.45816 44.8536 8.50276Z" fill="#7D7D7D"/>
<path d="M50.7917 11.501L49.7574 9.49118H48.9567V11.501H47.3887V5.47168H50.4247C51.7592 5.47168 52.5265 6.36118 52.5265 7.48138C52.5265 8.53568 51.8926 9.09578 51.3255 9.29348L52.5599 11.501H50.7917ZM50.9585 7.48138C50.9585 7.08608 50.6248 6.85548 50.1911 6.85548H48.9567V8.14038H50.1911C50.5915 8.14038 50.9585 7.90978 50.9585 7.48138Z" fill="#7D7D7D"/>
<path d="M53.1602 8.50276C53.1602 6.65766 54.5615 5.40576 56.4298 5.40576C58.2981 5.40576 59.666 6.69066 59.666 8.50276C59.666 10.3149 58.2648 11.5998 56.4298 11.5998C54.5615 11.5998 53.1602 10.3149 53.1602 8.50276ZM58.0979 8.50276C58.0979 7.51436 57.464 6.75656 56.4632 6.75656C55.4623 6.75656 54.795 7.51436 54.795 8.50276C54.795 9.49116 55.4289 10.249 56.4632 10.249C57.4307 10.249 58.0979 9.45816 58.0979 8.50276Z" fill="#7D7D7D"/>
<path d="M64.7052 11.501V9.09578H62.1696V11.501H60.6016V5.47168H62.1696V7.74498H64.7052V5.50458H66.2733V11.501H64.7052Z" fill="#7D7D7D"/>
<path d="M67.207 8.50276C67.207 6.65766 68.6083 5.40576 70.4766 5.40576C72.3449 5.40576 73.7128 6.69066 73.7128 8.50276C73.7128 10.3149 72.3115 11.5998 70.4766 11.5998C68.6083 11.5998 67.207 10.3149 67.207 8.50276ZM72.1114 8.50276C72.1114 7.51436 71.4775 6.75656 70.4432 6.75656C69.4423 6.75656 68.7751 7.51436 68.7751 8.50276C68.7751 9.49116 69.409 10.249 70.4432 10.249C71.4775 10.249 72.1114 9.45816 72.1114 8.50276Z" fill="#7D7D7D"/>
<path d="M76.0481 11.501L73.7461 5.47168H75.5143L77.0156 9.82068L78.517 5.47168H80.2852L77.9832 11.468H76.0481V11.501Z" fill="#7D7D7D"/>
<path d="M33.4766 20.4958V14.4995H36.0455C37.9472 14.4995 39.3484 15.6197 39.3484 17.4977C39.3484 19.3757 37.9805 20.4958 36.0789 20.4958H33.4766ZM37.747 17.4977C37.747 16.5752 37.1798 15.8503 36.0789 15.8503H35.078V19.145H36.0789C37.1131 19.145 37.747 18.3872 37.747 17.4977Z" fill="#7D7D7D"/>
<path d="M40.2832 20.4958V14.4995H44.7205V15.8503H41.8179V16.7728H44.6537V18.1237H41.8179V19.145H44.7205V20.4958H40.2832Z" fill="#7D7D7D"/>
<path d="M45.4219 19.6717L46.256 18.5185C46.6897 18.9468 47.3569 19.3092 48.191 19.3092C48.7248 19.3092 49.0584 19.1116 49.0584 18.815C49.0584 17.9914 45.6221 18.6503 45.6221 16.344C45.6221 15.3227 46.4895 14.4331 48.0576 14.4331C49.0251 14.4331 49.8925 14.7296 50.5264 15.2568L49.659 16.377C49.1585 15.9487 48.4913 15.751 47.8907 15.751C47.4237 15.751 47.2235 15.9157 47.2235 16.1793C47.2235 16.9371 50.6599 16.377 50.6599 18.6174C50.6599 19.8364 49.7591 20.6271 48.1243 20.6271C46.8899 20.6271 46.0224 20.2318 45.4219 19.6717Z" fill="#7D7D7D"/>
<path d="M51.5605 20.4958V14.4995H53.1285V20.4958H51.5605Z" fill="#7D7D7D"/>
<path d="M54.0625 17.4974C54.0625 15.5865 55.5305 14.4004 57.3654 14.4004C58.7333 14.4004 59.534 15.1252 59.9677 15.8501L58.6666 16.509C58.433 16.1136 57.966 15.7512 57.3654 15.7512C56.3645 15.7512 55.6639 16.509 55.6639 17.4974C55.6639 18.4858 56.3645 19.2436 57.3654 19.2436C57.7991 19.2436 58.2662 19.0789 58.4998 18.8812V18.4199H57.1319V17.0691H60.0678V19.4742C59.4006 20.199 58.5331 20.6603 57.3654 20.6603C55.5638 20.6274 54.0625 19.4083 54.0625 17.4974Z" fill="#7D7D7D"/>
<path d="M65.305 20.4959L62.736 17.0364V20.5288H61.168V14.4995H62.7694L65.2383 17.7942V14.4995H66.8063V20.4959H65.305Z" fill="#7D7D7D"/>
<path d="M11.1573 0.00244141H0.748047V25.9317H11.224C20.0318 25.9317 25.7035 20.8249 25.7035 12.9506C25.6701 5.07634 19.9984 0.00244141 11.1573 0.00244141ZM10.8904 20.7261H6.25295V5.57054H10.9571C16.3952 5.57054 20.1986 7.67914 20.1986 12.9835C20.1986 17.2337 16.7289 20.7261 10.8904 20.7261Z" fill="#7D7D7D"/>
<path d="M11.957 9.88672H10.7559V16.0478H11.957C14.3258 16.0478 15.727 14.6311 15.727 12.8849C15.6936 10.7433 14.159 9.88672 11.957 9.88672Z" fill="#7D7D7D"/>
</svg>
