<svg width="35" height="35" viewBox="0 0 35 35" fill="none" xmlns="http://www.w3.org/2000/svg">
<path d="M26.2491 0.00728234L21.7104 0C16.6114 0 13.3162 3.38082 13.3162 8.61355V12.585H8.75272C8.35839 12.585 8.03906 12.9047 8.03906 13.299V19.0531C8.03906 19.4475 8.35875 19.7668 8.75272 19.7668H13.3162V34.2863C13.3162 34.6807 13.6355 35 14.0298 35H19.9838C20.3781 35 20.6974 34.6803 20.6974 34.2863V19.7668H26.0332C26.4275 19.7668 26.7468 19.4475 26.7468 19.0531L26.749 13.299C26.749 13.1097 26.6736 12.9283 26.54 12.7943C26.4064 12.6603 26.2243 12.585 26.035 12.585H20.6974V9.21835C20.6974 7.60021 21.083 6.77876 23.1909 6.77876L26.2483 6.77767C26.6423 6.77767 26.9616 6.45798 26.9616 6.064V0.720951C26.9616 0.327341 26.6427 0.00801057 26.2491 0.00728234Z" fill="#2B2B2B"/>
</svg>
