<svg width="122" height="52" viewBox="0 0 122 52" fill="none" xmlns="http://www.w3.org/2000/svg">
<g clip-path="url(#clip0)">
<path d="M26.93 0.0352542C26.682 0 26.3985 0 26.1505 0C11.7287 0 0 11.6692 0 26.0176C0 40.3661 11.7287 52 26.1505 52C40.5722 52 52.3009 40.3308 52.3009 26.0176C52.2655 11.9159 40.962 0.458305 26.93 0.0352542ZM26.1505 50.5898C12.5083 50.5898 1.41737 39.5553 1.41737 26.0176C1.41737 12.4447 12.5083 1.41017 26.1505 1.41017C39.7926 1.41017 50.8835 12.4447 50.8835 26.0176C50.8835 39.5553 39.7572 50.5898 26.1505 50.5898Z" fill="white"/>
<path d="M26.1497 2.32678C13.039 2.32678 2.33789 12.9383 2.33789 26.0176C2.33789 39.0617 13.0036 49.7085 26.1497 49.7085C39.2603 49.7085 49.9615 39.097 49.9615 26.0176C49.926 12.9383 39.2603 2.32678 26.1497 2.32678ZM18.425 11.6339C18.425 7.40339 21.8976 3.94848 26.1497 3.94848C31.89 3.94848 36.5319 8.63729 36.5319 14.419C36.5319 14.8773 36.4965 15.3003 36.4256 15.7586C35.6461 21.1525 27.5316 20.4827 27.5316 15.0183C27.5316 14.2427 26.9292 13.6434 26.1497 13.6434C25.3701 13.6434 24.7677 14.2427 24.7677 15.0183V24.6075H18.425V11.6339ZM3.96786 26.0176C3.96786 24.96 4.03873 23.9376 4.18047 22.9153C6.09392 25.101 8.64518 26.5817 11.5154 27.1105L5.49154 33.9498C4.49938 31.482 3.96786 28.8027 3.96786 26.0176ZM12.9682 43.7153C11.2673 42.4461 9.74364 40.9654 8.46801 39.3085C7.36955 37.8631 7.44042 35.8888 8.64518 34.5139L12.9682 29.6136V43.7153ZM12.9682 24.5722C11.4799 24.4312 10.0625 23.9376 8.82235 23.1973C6.12935 21.6109 5.20806 18.1207 6.6963 15.4061C8.2554 12.5858 10.3815 10.1532 12.9682 8.24949V24.5722ZM26.1497 48.0515C26.1143 48.0515 26.0788 48.0515 26.0788 48.0515C21.8267 48.0515 18.4605 44.5261 18.4605 40.2956V27.3925H24.8741C25.5827 33.9146 31.1813 39.097 37.9493 39.097H43.9377C39.8982 44.5261 33.4491 48.0515 26.1497 48.0515ZM37.9138 36.3471C32.6341 36.3471 28.2757 32.3634 27.6379 27.2868C34.1578 26.5464 39.2249 21.082 39.2958 14.419C39.2958 11.5281 38.3745 8.84882 36.7799 6.66305C40.0753 8.46102 42.8746 11.1051 44.8944 14.278H42.0951C42.2723 15.6176 42.9809 16.8163 44.0794 17.6271C46.3118 19.2488 47.8354 21.7166 48.2606 24.537C48.2961 25.0305 48.2961 25.4888 48.2961 25.9824C48.2961 26.0529 48.2961 26.1234 48.2961 26.1939C48.2252 31.8346 43.5479 36.3471 37.9138 36.3471Z" fill="white"/>
<path d="M75.085 28.5207C75.085 28.9437 75.2267 29.2963 75.5102 29.5431C75.7936 29.7898 76.2189 29.9309 76.8212 29.9309H77.5654V30.1776H69.8761V29.9309H70.6203C71.7896 29.9309 72.3565 29.4373 72.3565 28.4502V21.8576H69.9116C69.2029 22.0339 68.7422 22.4922 68.4588 23.1973C68.2107 23.9376 68.0336 24.8542 67.9273 25.9824C67.8918 26.8285 67.7855 27.5336 67.6438 28.0624C67.502 28.6265 67.2894 29.0495 67.0414 29.3668C66.7934 29.6841 66.4745 29.9309 66.1201 30.0366C65.7658 30.1776 65.3406 30.2481 64.8799 30.2481C64.3838 30.2481 63.9941 30.1424 63.6751 29.9309C63.3562 29.7193 63.1436 29.4373 63.0373 29.0848C62.8956 28.7322 62.8602 28.3444 62.8956 27.8861C62.931 27.4278 63.0373 26.9695 63.2145 26.4759C63.3208 26.4054 63.4271 26.3702 63.5334 26.3702C63.6397 26.3702 63.746 26.4407 63.8169 26.5112C63.5334 26.899 63.3562 27.2868 63.2499 27.6746C63.1436 28.0624 63.1436 28.3797 63.1791 28.6617C63.2145 28.9437 63.3208 29.1905 63.4625 29.3668C63.6043 29.5431 63.8169 29.6488 64.0295 29.6488C64.313 29.6488 64.4901 29.5431 64.5964 29.3668C64.7027 29.1905 64.7736 28.9437 64.809 28.5912C64.8445 28.2739 64.8445 27.8509 64.8445 27.3926C64.8445 26.9342 64.8799 26.4054 64.9508 25.8414C64.9862 25.3478 65.0925 24.8542 65.2697 24.3959C65.4114 23.9024 65.624 23.4793 65.9075 23.0915C66.1555 22.7037 66.4744 22.3512 66.8642 22.1044C67.2186 21.8224 67.6792 21.6461 68.1753 21.5756V21.5051C67.6792 21.4698 67.2186 21.3288 66.7579 21.1526C66.2973 20.941 65.9075 20.6942 65.5177 20.377C65.1634 20.0597 64.8445 19.6366 64.6319 19.1783C64.4193 18.6848 64.313 18.1559 64.313 17.5214C64.313 15.9349 64.809 14.7363 65.8366 13.9607C66.8642 13.1851 68.4942 12.7973 70.762 12.7973C71.4707 12.7973 72.1794 12.8326 72.9235 12.8678C73.6676 12.9031 74.3054 12.9383 74.8015 12.9383H77.5654V13.1851H76.8212C75.6519 13.1851 75.085 13.6787 75.085 14.6658V28.5207ZM72.3565 13.2909C71.7187 13.1146 71.1518 13.0088 70.7266 13.0088C69.7344 13.0088 68.9903 13.1498 68.5296 13.4671C68.0336 13.7844 67.7146 14.137 67.5375 14.5953C67.3603 15.0536 67.2894 15.5471 67.3249 16.1112C67.3603 16.6753 67.3603 17.1688 67.3603 17.6624C67.3603 18.2264 67.3957 18.7553 67.4312 19.2488C67.4666 19.7424 67.6083 20.1302 67.8209 20.4827C68.0336 20.8353 68.3525 21.082 68.7777 21.2936C69.2029 21.5051 69.8053 21.5756 70.5494 21.5756C70.9037 21.5756 71.2581 21.5403 71.5415 21.5051C71.8604 21.4698 72.1085 21.3641 72.3565 21.1878V13.2909ZM81.9946 14.6305C81.9946 13.6434 81.4277 13.1498 80.2584 13.1498H79.5142V12.9031H82.2781C82.8096 12.9031 83.4474 12.8678 84.1561 12.8326C84.9002 12.7973 85.6089 12.762 86.3176 12.762C87.5578 12.762 88.6208 12.8678 89.5067 13.0793C90.3571 13.2909 91.0658 13.6081 91.5619 14.0312C92.0934 14.4542 92.4477 14.9831 92.6603 15.5824C92.8729 16.217 92.9792 16.922 92.9792 17.6976C92.9792 19.3898 92.4123 20.7648 91.2784 21.7519C90.1445 22.739 88.4791 23.2678 86.3176 23.2678C86.0696 23.2678 85.8215 23.2678 85.5026 23.2326C85.1837 23.2326 84.9357 23.1973 84.6876 23.162V28.3797C84.6876 29.3668 85.2546 29.8603 86.4239 29.8603H87.168V30.1071H79.4788V29.8603H80.2229C80.8253 29.8603 81.286 29.7193 81.534 29.4726C81.8175 29.2258 81.9592 28.8732 81.9592 28.4502V14.6305H81.9946ZM84.7231 22.5627C84.9002 22.739 85.2192 22.8448 85.6089 22.9505C86.0341 23.0563 86.4239 23.0915 86.7783 23.0915C87.5578 23.0915 88.1602 22.9505 88.5854 22.7037C89.0106 22.457 89.3295 22.0692 89.5421 21.6109C89.7547 21.1526 89.861 20.5885 89.8965 19.9892C89.9319 19.3546 89.9673 18.6848 89.9673 17.9444C89.9673 17.4509 89.9673 16.922 89.9673 16.358C89.9673 15.7939 89.861 15.2651 89.6484 14.7715C89.4358 14.278 89.0815 13.8902 88.5854 13.5376C88.0893 13.2203 87.3452 13.0441 86.3885 13.0441C86.1404 13.0441 85.8924 13.0441 85.6444 13.0793C85.3609 13.0793 85.0774 13.1498 84.7585 13.2203V22.5627H84.7231ZM102.121 27.2515L95.9911 15.1241C95.814 14.7715 95.6368 14.4895 95.5305 14.2075C95.3888 13.9607 95.247 13.7492 95.1053 13.6081C94.9636 13.4671 94.7864 13.3261 94.5738 13.2556C94.3612 13.1851 94.1131 13.1498 93.7942 13.1498H93.5108V12.9031H101.2V13.1498H100.456C99.8535 13.1498 99.3928 13.3261 99.1094 13.6787C98.8259 14.0312 98.8259 14.4895 99.1448 15.0888L103.255 23.4793H103.361L105.7 15.7939C105.948 14.9831 105.948 14.3485 105.736 13.8549C105.523 13.3614 105.098 13.1498 104.495 13.1498H103.751V12.9031H108.818V13.1498H108.57C107.968 13.1498 107.436 13.4319 106.976 14.0312C106.515 14.6305 106.125 15.4414 105.806 16.4637L102.405 27.2515C102.192 27.9214 101.98 28.4502 101.731 28.838C101.483 29.261 101.235 29.5783 100.952 29.7898C100.704 30.0366 100.42 30.1776 100.172 30.2481C99.9244 30.3187 99.7117 30.3892 99.5346 30.3892C99.2865 30.3892 99.0385 30.3539 98.755 30.2481C98.507 30.1424 98.2589 30.0366 98.0463 29.8251C97.8337 29.6488 97.6566 29.4373 97.5148 29.1553C97.3731 28.9085 97.3022 28.5912 97.3022 28.2387C97.3022 27.8156 97.3731 27.4631 97.5503 27.1458C97.692 26.8637 97.9046 26.617 98.1526 26.4759C98.4007 26.3349 98.6841 26.2644 98.9676 26.2644C99.2511 26.2644 99.57 26.4054 99.8181 26.617L99.8535 26.7932C99.7472 27.04 99.7117 27.322 99.7117 27.5688C99.7117 27.8156 99.7472 28.0271 99.8181 28.2387C99.8889 28.4502 99.9952 28.5912 100.137 28.697C100.279 28.8027 100.42 28.8732 100.633 28.8732C100.81 28.8732 100.987 28.8027 101.235 28.6617C101.483 28.5207 101.661 28.2387 101.767 27.8509L102.121 27.2515ZM116.685 12.6563C117.393 12.6563 117.996 12.6915 118.527 12.762C119.059 12.8326 119.555 12.8678 119.945 12.8678C120.334 12.8678 120.689 12.8326 120.972 12.762C121.256 12.6563 121.468 12.48 121.61 12.1627L121.787 12.2685C121.681 12.6915 121.575 13.1851 121.539 13.7492C121.468 14.3132 121.433 14.8773 121.397 15.5119C121.362 16.1112 121.327 16.781 121.327 17.4156C121.327 18.0854 121.291 18.72 121.291 19.3546H121.114C120.972 17.0631 120.547 15.4414 119.803 14.419C119.059 13.4319 118.031 12.9031 116.685 12.9031C115.905 12.9031 115.267 13.0441 114.771 13.3261C114.275 13.6081 113.885 13.9607 113.567 14.419C113.283 14.8773 113.07 15.3709 112.964 15.9702C112.822 16.5342 112.752 17.1336 112.716 17.7681C112.681 18.3675 112.681 19.002 112.681 19.6014C112.716 20.2007 112.716 20.7295 112.716 21.2231C112.716 21.7519 112.716 22.3512 112.681 22.9858C112.645 23.6203 112.645 24.2902 112.681 24.96C112.716 25.6298 112.787 26.2644 112.893 26.899C113.035 27.5336 113.212 28.0976 113.531 28.5912C113.815 29.0848 114.24 29.4726 114.736 29.7546C115.232 30.0366 115.905 30.2129 116.72 30.2129C117.464 30.2129 118.102 29.9661 118.634 29.5078C119.165 29.0495 119.59 28.4502 119.98 27.7098C120.334 26.9695 120.618 26.1939 120.831 25.3126C121.043 24.4312 121.185 23.6203 121.256 22.8095H121.433C121.433 23.4441 121.433 24.1492 121.433 24.8895C121.433 25.6298 121.468 26.3702 121.539 27.1105C121.575 27.8509 121.646 28.5207 121.716 29.12C121.787 29.7546 121.894 30.2481 122 30.6359L121.787 30.777C121.61 30.2834 121.291 29.9661 120.866 29.8603C120.441 29.7546 119.98 29.7546 119.484 29.8603C118.988 29.9661 118.456 30.0719 117.96 30.2481C117.464 30.4244 117.004 30.4949 116.685 30.4949C115.622 30.4949 114.665 30.2834 113.744 29.8603C112.858 29.4373 112.078 28.838 111.44 28.0271C110.803 27.2515 110.271 26.2997 109.917 25.1715C109.562 24.0434 109.385 22.8095 109.385 21.4346C109.385 20.1654 109.562 18.9668 109.917 17.9092C110.271 16.8515 110.803 15.9349 111.44 15.1593C112.078 14.3837 112.858 13.7844 113.744 13.3614C114.665 12.8678 115.622 12.6563 116.685 12.6563Z" fill="white"/>
<path d="M66.0488 35.642C65.9425 35.5715 65.7653 35.501 65.5173 35.501C65.1629 35.501 64.7023 35.642 64.7023 36.9817C64.7023 38.0746 64.9857 38.2861 65.4464 38.2861C65.7299 38.2861 65.9425 38.1803 66.0488 38.0746C66.0842 38.1451 66.0842 38.2156 66.0842 38.2861C66.0842 38.4271 65.7653 38.6034 65.3047 38.6034C64.7023 38.6034 64.3125 38.3919 64.3125 36.9464C64.3125 35.36 64.9857 35.1485 65.5173 35.1485C65.8007 35.1485 66.0842 35.2542 66.0842 35.4305C66.0842 35.4658 66.0842 35.5715 66.0488 35.642ZM69.5213 35.5363V38.4624C69.5213 38.5329 69.5213 38.5329 69.167 38.5329V35.5363H68.352C68.352 35.219 68.352 35.219 68.4583 35.219H70.3718C70.3718 35.501 70.3718 35.5363 70.2655 35.5363H69.5213ZM72.6041 35.3247C72.5687 35.219 72.5687 35.219 72.9584 35.219L73.4545 37.1932C73.5608 37.6868 73.6317 38.2156 73.6317 38.2156C73.6317 38.2156 73.7026 37.6868 73.8089 37.158L74.2695 35.3247C74.305 35.219 74.305 35.219 74.6593 35.219L73.7734 38.7444C73.5608 39.5553 73.3128 39.8373 72.8521 39.8373C72.5332 39.8373 72.3561 39.7668 72.3561 39.6258C72.3561 39.5553 72.3915 39.4495 72.4269 39.4142C72.5332 39.4848 72.7104 39.4847 72.8521 39.4847C73.1002 39.4847 73.3128 39.2732 73.4545 38.6386L72.6041 35.3247ZM76.5019 38.2861C76.5019 38.1803 76.6082 38.2156 76.8208 38.1803C77.2106 37.44 77.246 36.2766 77.2814 35.2895C77.2814 35.1837 77.3169 35.1837 77.9192 35.1837H78.9468V38.1803H79.2657V39.379C79.2657 39.4495 79.1594 39.4495 79.0177 39.4495C78.9468 39.0617 78.9114 38.7092 78.9114 38.4976H76.8917C76.8917 38.8502 76.8208 39.2732 76.8208 39.379C76.7853 39.4495 76.679 39.4495 76.5727 39.4495V38.2861H76.5019ZM78.5571 35.5363H77.6358C77.5649 36.5586 77.5649 37.4047 77.2106 38.1803H78.5925V35.5363H78.5571ZM83.2698 35.3247C83.3052 35.2542 83.3407 35.219 83.6242 35.219V38.4624C83.6242 38.5329 83.5887 38.5329 83.2698 38.5329V37.299C83.2698 37.2285 83.3407 36.1003 83.3407 35.7478C83.1635 36.1003 82.632 37.1227 82.5966 37.1932L81.9233 38.4271C81.8879 38.5329 81.8524 38.5329 81.6044 38.5329V35.2895C81.6044 35.219 81.6398 35.219 81.9587 35.219V36.9817C81.9587 37.3342 81.9233 37.7573 81.8879 38.0041C82.065 37.6868 82.5966 36.6292 82.632 36.5586L83.2698 35.3247ZM86.9195 37.158C86.6715 37.44 86.5298 37.8278 86.4589 38.4624C86.4235 38.5329 86.388 38.5681 86.3172 38.5681C86.2463 38.5681 86.1045 38.5681 86.0691 38.5681C86.1045 37.7573 86.388 37.2637 86.6006 37.0522C86.3172 36.9464 86.0337 36.6997 86.0337 36.2061C86.0337 35.5363 86.388 35.219 87.1321 35.219H87.9117V38.4271C87.9117 38.5329 87.9117 38.5329 87.5574 38.5329V37.1227H86.9195V37.158ZM87.5574 35.5363C87.5219 35.5363 87.3093 35.5363 87.0613 35.5363C86.6361 35.5363 86.4235 35.7478 86.4235 36.2061C86.4235 36.6997 86.7069 36.8759 86.9904 36.8759C87.3093 36.8759 87.4511 36.8759 87.5574 36.8759V35.5363ZM93.156 35.4305C93.4394 35.2542 93.7583 35.1485 94.1127 35.1485C94.7859 35.1485 95.2111 35.4658 95.2111 36.5586C95.2111 38.3566 94.5379 38.6034 94.1127 38.6034C93.8292 38.6034 93.6166 38.4976 93.5103 38.3566V39.802C93.4394 39.802 93.3686 39.8373 93.3331 39.8373C93.2268 39.8373 93.156 39.802 93.156 39.6963V35.4305ZM93.5103 37.9688C93.6166 38.1803 93.8292 38.2861 94.0064 38.2861C94.2899 38.2861 94.7859 38.1098 94.7859 36.6292C94.7859 35.7125 94.5379 35.4658 94.0772 35.4658C93.8646 35.4658 93.652 35.5363 93.5103 35.642V37.9688ZM99.4987 38.0393C99.5341 38.1098 99.5341 38.2156 99.5341 38.2861C99.5341 38.4624 99.1089 38.6034 98.6483 38.6034C98.0104 38.6034 97.5498 38.3919 97.5498 37.0522C97.5498 35.3247 98.1876 35.1485 98.7546 35.1485C99.3215 35.1485 99.605 35.5363 99.605 36.2061C99.605 36.4881 99.5696 36.7702 99.5341 37.017C99.0026 37.1227 98.2585 37.1227 97.9396 37.1227C97.9396 38.1098 98.2231 38.2508 98.7191 38.2508C98.9672 38.2508 99.2861 38.1803 99.4987 38.0393ZM97.9041 36.8054C98.1876 36.8054 98.79 36.8054 99.1798 36.7349C99.2152 36.5586 99.2152 36.4176 99.2152 36.2766C99.2152 35.7478 99.1089 35.501 98.7191 35.501C98.3648 35.501 97.9396 35.642 97.9041 36.8054ZM101.944 35.2895C101.944 35.2895 101.944 35.219 102.05 35.219H102.298L103.042 36.8759C103.113 36.9817 103.255 37.4047 103.255 37.4047C103.326 37.1932 103.467 36.8407 103.538 36.6644L104.141 35.2542C104.141 35.219 104.176 35.1837 104.247 35.1837H104.53V38.4624C104.53 38.5329 104.566 38.5329 104.176 38.5329V37.299C104.176 37.0522 104.247 36.5234 104.247 35.7478C104.141 35.9946 103.715 36.9817 103.715 36.9817L103.361 37.7573C103.361 37.7925 103.326 37.7925 103.29 37.7925H103.113L102.759 36.9817C102.723 36.9112 102.404 36.1356 102.227 35.7831C102.227 36.4529 102.298 37.017 102.298 37.2285V38.4271C102.298 38.4976 102.298 38.4976 101.944 38.4976V35.2895ZM108.038 35.1485C108.712 35.1485 109.066 35.501 109.066 36.8759C109.066 38.0746 108.676 38.6034 107.967 38.6034C107.294 38.6034 106.94 38.3919 106.94 36.8759C106.94 35.642 107.33 35.1485 108.038 35.1485ZM107.967 38.2861C108.393 38.2861 108.676 37.8983 108.676 36.8759C108.676 35.7125 108.428 35.501 108.003 35.501C107.578 35.501 107.294 35.8183 107.294 36.9464C107.33 38.0746 107.542 38.2861 107.967 38.2861ZM113.46 38.4624C113.46 38.5329 113.46 38.5329 113.07 38.5329V37.0522H111.83V38.4624C111.83 38.5329 111.83 38.5329 111.475 38.5329V35.2895C111.475 35.1837 111.475 35.1837 111.83 35.1837V36.6997H113.07V35.2895C113.07 35.1837 113.07 35.1837 113.46 35.1837V38.4624ZM117.003 35.5363V38.4624C117.003 38.5329 117.003 38.5329 116.649 38.5329V35.5363H115.834C115.834 35.219 115.834 35.219 115.94 35.219H117.854C117.854 35.501 117.854 35.5363 117.747 35.5363H117.003ZM121.999 36.3471C121.999 37.1227 121.999 37.8278 121.964 38.3566C121.822 38.4624 121.539 38.6034 121.043 38.6034C120.547 38.6034 120.086 38.5329 120.086 37.6163C120.086 36.6644 120.582 36.5234 121.078 36.5234C121.255 36.5234 121.468 36.5586 121.61 36.5939C121.61 36.5939 121.61 36.2061 121.61 35.9946C121.61 35.5715 121.397 35.4658 121.078 35.4658C120.653 35.4658 120.299 35.5363 120.121 35.642C120.086 35.5715 120.051 35.501 120.051 35.4305C120.051 35.36 120.086 35.3247 120.121 35.2895C120.263 35.219 120.688 35.1132 121.184 35.1132C121.716 35.1132 121.999 35.3247 121.999 35.9241V36.3471ZM121.184 36.8054C120.795 36.8054 120.44 36.8759 120.44 37.581C120.44 38.2156 120.724 38.2508 121.078 38.2508C121.291 38.2508 121.503 38.1803 121.574 38.1098C121.61 37.8278 121.61 37.299 121.61 36.8407C121.503 36.8407 121.326 36.8054 121.184 36.8054Z" fill="white"/>
</g>
<defs>
<clipPath id="clip0">
<rect width="122" height="52" fill="white"/>
</clipPath>
</defs>
</svg>
