<svg width="40" height="40" viewBox="0 0 40 40" fill="none" xmlns="http://www.w3.org/2000/svg">
<g clip-path="url(#clip0)">
<path d="M39.788 29.1998C39.7395 29.0954 39.6944 29.0089 39.6524 28.9395C38.9584 27.6896 37.6322 26.1554 35.6746 24.3365L35.6332 24.2949L35.6125 24.2744L35.5916 24.2535H35.5706C34.6821 23.4065 34.1195 22.8371 33.8839 22.5455C33.4527 21.9901 33.3562 21.4279 33.5918 20.8583C33.7582 20.4279 34.3835 19.519 35.4662 18.1303C36.0357 17.3944 36.4867 16.8046 36.8197 16.3602C39.2219 13.1667 40.2633 11.1259 39.9438 10.2373L39.8198 10.0296C39.7364 9.90455 39.5212 9.79017 39.1745 9.68586C38.827 9.58177 38.3828 9.56455 37.8412 9.63393L31.8434 9.67536C31.7462 9.64093 31.6075 9.64414 31.4267 9.68586C31.2462 9.72759 31.1559 9.74852 31.1559 9.74852L31.0515 9.80068L30.9686 9.86334C30.8992 9.90477 30.8228 9.97764 30.7394 10.0818C30.6565 10.1856 30.5871 10.3074 30.5317 10.4462C29.8787 12.1262 29.1362 13.6882 28.303 15.1321C27.7892 15.9931 27.3174 16.7392 26.8865 17.371C26.4562 18.0025 26.0952 18.4679 25.8039 18.7661C25.5121 19.0647 25.2488 19.3039 25.0123 19.4846C24.7762 19.6653 24.5959 19.7417 24.4711 19.7138C24.346 19.6858 24.2282 19.6581 24.1167 19.6304C23.9224 19.5054 23.7662 19.3353 23.6483 19.1201C23.53 18.9049 23.4504 18.6341 23.4087 18.3078C23.3673 17.9813 23.3428 17.7005 23.3358 17.4644C23.3293 17.2285 23.3323 16.8949 23.3464 16.4646C23.3608 16.034 23.3673 15.7426 23.3673 15.5899C23.3673 15.0622 23.3776 14.4895 23.3982 13.8717C23.4192 13.2538 23.4362 12.7643 23.4504 12.4036C23.4646 12.0426 23.4712 11.6607 23.4712 11.258C23.4712 10.8554 23.4467 10.5396 23.3982 10.3104C23.3504 10.0815 23.2769 9.85933 23.1801 9.64392C23.0827 9.42873 22.9402 9.26227 22.7532 9.1441C22.5658 9.02607 22.3328 8.93241 22.0555 8.86282C21.3196 8.69629 20.3825 8.6062 19.2437 8.5922C16.6614 8.56448 15.0021 8.73123 14.2662 9.09223C13.9747 9.24476 13.7108 9.45317 13.4749 9.71679C13.2249 10.0224 13.1901 10.1891 13.3705 10.2165C14.2037 10.3413 14.7935 10.6399 15.1407 11.1119L15.2658 11.3621C15.3631 11.5425 15.4603 11.862 15.5575 12.3201C15.6546 12.7782 15.7173 13.285 15.7448 13.8401C15.8141 14.8538 15.8141 15.7216 15.7448 16.4434C15.6753 17.1656 15.6097 17.7278 15.547 18.1304C15.4843 18.5331 15.3907 18.8594 15.2658 19.1092C15.1407 19.3591 15.0575 19.5119 15.0157 19.5673C14.9741 19.6227 14.9394 19.6577 14.9118 19.6714C14.7313 19.7405 14.5436 19.7758 14.3494 19.7758C14.1548 19.7758 13.9189 19.6785 13.6413 19.484C13.3638 19.2895 13.0757 19.0224 12.7771 18.6822C12.4786 18.3419 12.1419 17.8664 11.7668 17.2555C11.3921 16.6447 11.0033 15.9227 10.6007 15.0897L10.2675 14.4856C10.0593 14.0969 9.77478 13.531 9.41378 12.7884C9.05255 12.0454 8.73327 11.3268 8.45572 10.6325C8.34477 10.341 8.17809 10.119 7.95597 9.96626L7.85173 9.9036C7.78244 9.84816 7.67119 9.7893 7.51859 9.72656C7.36577 9.6639 7.20632 9.61897 7.03956 9.59132L1.33314 9.63276C0.750021 9.63276 0.354367 9.76486 0.146036 10.0287L0.0626598 10.1535C0.0210082 10.223 0 10.3341 0 10.4869C0 10.6396 0.0416516 10.8271 0.125028 11.0491C0.95806 13.0069 1.86397 14.8951 2.84274 16.7139C3.82152 18.5327 4.67206 19.9978 5.39385 21.1079C6.11579 22.2188 6.85166 23.2672 7.60146 24.2527C8.35126 25.2385 8.84758 25.8703 9.09041 26.1479C9.33354 26.4259 9.52451 26.6338 9.66332 26.7727L10.1841 27.2724C10.5173 27.6057 11.0066 28.0048 11.6522 28.4699C12.298 28.9352 13.013 29.3933 13.7974 29.8449C14.582 30.2958 15.4948 30.6637 16.5362 30.9482C17.5775 31.2331 18.591 31.3474 19.5768 31.2923H21.9719C22.4577 31.2503 22.8257 31.0976 23.0758 30.8339L23.1587 30.7296C23.2144 30.6467 23.2666 30.5179 23.3147 30.3447C23.3634 30.1712 23.3876 29.98 23.3876 29.772C23.3734 29.1751 23.4189 28.6371 23.5227 28.1582C23.6265 27.6794 23.7449 27.3184 23.8772 27.0752C24.0094 26.8323 24.1587 26.6273 24.3248 26.4612C24.4912 26.2946 24.6098 26.1938 24.6794 26.159C24.7486 26.1241 24.8038 26.1004 24.8455 26.0862C25.1787 25.9751 25.5708 26.0827 26.0225 26.4092C26.4738 26.7355 26.8971 27.1384 27.2931 27.6172C27.6888 28.0965 28.1642 28.6341 28.7195 29.231C29.2751 29.8282 29.7609 30.272 30.1773 30.564L30.5937 30.814C30.8717 30.9807 31.2327 31.1335 31.6771 31.2723C32.1207 31.411 32.5093 31.4457 32.8431 31.3764L38.1744 31.2932C38.7017 31.2932 39.112 31.2059 39.4031 31.0326C39.6947 30.8591 39.868 30.6679 39.9239 30.46C39.9796 30.2518 39.9826 30.0156 39.9344 29.7515C39.885 29.4881 39.8364 29.3039 39.788 29.1998Z" fill="#2B2B2B"/>
</g>
<defs>
<clipPath id="clip0">
<rect width="40" height="40" fill="white"/>
</clipPath>
</defs>
</svg>
