<svg width="19" height="22" fill="none" xmlns="http://www.w3.org/2000/svg"><path d="M.842 8.25C.842 3.873 4.306.324 8.579.324c4.272 0 7.736 3.549 7.736 7.926a8.016 8.016 0 0 1-1.543 4.752L8.579 21.46 2.386 13s0 0 0 0A8.017 8.017 0 0 1 .842 8.25zm2.052 0c0 3.216 2.546 5.824 5.685 5.824s5.684-2.608 5.684-5.824c0-3.216-2.545-5.823-5.684-5.823-3.14 0-5.685 2.607-5.685 5.823z" stroke="#fff" stroke-width=".5"/><path d="M10.203 0C5.756 0 2.15 3.694 2.15 8.25a8.35 8.35 0 0 0 1.607 4.946L10.203 22l6.446-8.804a8.345 8.345 0 0 0 1.607-4.946c0-4.556-3.606-8.25-8.053-8.25zm0 13.75c-2.965 0-5.368-2.463-5.368-5.5s2.403-5.5 5.368-5.5c2.965 0 5.368 2.463 5.368 5.5s-2.403 5.5-5.368 5.5z" fill="#B38144"/></svg>