<svg width="45" height="45" fill="none" xmlns="http://www.w3.org/2000/svg"><circle cx="22.5" cy="22.5" r="22.5" fill="#fff"/><g clip-path="url(#clip0)"><path d="M34 16.632h-5.89a2.68 2.68 0 0 0 .486-1.546c0-.724-.28-1.402-.788-1.91a2.705 2.705 0 0 0-3.82 0l-1.093 1.091-1.091-1.092a2.705 2.705 0 0 0-3.82 0 2.683 2.683 0 0 0-.79 1.91c0 .564.172 1.098.487 1.547H12v5.404h1.93v11.579h18.526v-11.58H34v-5.403zm-9.467-2.91a1.932 1.932 0 0 1 2.73 0c.362.362.562.846.562 1.364 0 .517-.2 1.002-.563 1.364l-.182.182h-5.458l1.82-1.819 1.091-1.092zM18.53 16.45a1.916 1.916 0 0 1-.562-1.364c0-.518.2-1.002.562-1.365a1.932 1.932 0 0 1 2.73 0l1.09 1.092-1.364 1.364c-.08.08-.153.17-.224.266l-.061.089c-.023.034-.048.064-.07.1h-1.919l-.182-.182zm-5.757 4.814v-3.86h10.034v3.86H12.772zm10.035.772v4.631h-8.105v-4.631h8.105zm-8.105 5.403h8.105v5.404h-8.105v-5.404zm8.877 5.404v-5.404h8.105v5.404H23.58zm8.105-6.176H23.58v-4.631h8.105v4.631zm1.544-5.403H23.58v-3.86h9.65v3.86z" fill="#2B2B2B"/></g><defs><clipPath id="clip0"><path fill="#fff" transform="translate(12 12)" d="M0 0h22v22H0z"/></clipPath></defs></svg>